<svg xmlns="http://www.w3.org/2000/svg" viewBox="0 0 661.7 211.7"><title>logo-CDLG-vertcypres-horizontal</title><path d="M386.7,262.4a14.7,14.7,0,0,0,11.6-5.5l-3.3-3.5a15,15,0,0,1-3.9,2.9,9.3,9.3,0,0,1-4.5,1,10,10,0,0,1-7.3-3.2,11.4,11.4,0,0,1-3-8,10.6,10.6,0,0,1,3.1-7.9,10.5,10.5,0,0,1,7.6-3.1,9.9,9.9,0,0,1,4.4.9,14.7,14.7,0,0,1,4.1,3l3.2-3.7a14.7,14.7,0,0,0-11.6-5.4,15.3,15.3,0,0,0-11.5,4.7,15.8,15.8,0,0,0-4.6,11.7,16.1,16.1,0,0,0,4.5,11.6A15.2,15.2,0,0,0,386.7,262.4Z" transform="translate(-89.4 -192.9)" fill="#5a6052"/><polygon points="324.4 56.3 339.2 56.3 339.2 69.2 344.3 69.2 344.3 37.8 339.2 37.8 339.2 51.4 324.4 51.4 324.4 37.8 319.3 37.8 319.3 69.2 324.4 69.2 324.4 56.3" fill="#5a6052"/><path d="M450.4,254.9h15l3,7.2h5.4l-13.2-31.4h-5.4l-13.1,31.4h5.4Zm7.5-17.8,5.5,12.9H452.5Z" transform="translate(-89.4 -192.9)" fill="#5a6052"/><polygon points="396.8 69.2 401.8 69.2 401.8 42.6 410.9 42.6 410.9 37.8 387.7 37.8 387.7 42.6 396.8 42.6 396.8 69.2" fill="#5a6052"/><polygon points="442.1 64.2 425.7 64.2 425.7 55.8 440 55.8 440 51.1 425.7 51.1 425.7 42.8 441.6 42.8 441.6 37.8 420.6 37.8 420.6 69.2 442.1 69.2 442.1 64.2" fill="#5a6052"/><path d="M556.6,230.7h-5.4l-13.1,31.4h5.4l3-7.2h14.9l3,7.2h5.4ZM548.5,250l5.4-12.9,5.5,12.9Z" transform="translate(-89.4 -192.9)" fill="#5a6052"/><path d="M597.4,248.1a10.4,10.4,0,0,1-2.1,6.8,6.6,6.6,0,0,1-5.5,2.5,6.8,6.8,0,0,1-5.6-2.5,11,11,0,0,1-2-6.8V230.7h-5.1v17.6c0,4.5,1.2,8,3.6,10.4a11.8,11.8,0,0,0,9.1,3.7,12,12,0,0,0,9.1-3.7c2.4-2.4,3.5-5.9,3.5-10.4V230.7h-5Z" transform="translate(-89.4 -192.9)" fill="#5a6052"/><path d="M383.2,292.1H372.9v31.3h10c5.7,0,10-1.4,12.8-4.2s4.2-6.7,4.2-11.6-1.4-8.7-4.3-11.4S388.6,292.1,383.2,292.1Zm8.7,23.6c-1.9,1.8-4.7,2.8-8.3,2.8H378V297h5c7.9,0,11.8,3.5,11.8,10.7C394.8,311.3,393.8,313.9,391.9,315.7Z" transform="translate(-89.4 -192.9)" fill="#5a6052"/><polygon points="342.8 125.5 326.4 125.5 326.4 117.1 340.7 117.1 340.7 112.4 326.4 112.4 326.4 104.1 342.3 104.1 342.3 99.1 321.3 99.1 321.3 130.5 342.8 130.5 342.8 125.5" fill="#5a6052"/><polygon points="366.6 99.1 366.6 130.5 385.3 130.5 385.3 125.5 371.7 125.5 371.7 99.1 366.6 99.1" fill="#5a6052"/><path d="M512,323.4l-13.1-31.3h-5.4l-13.2,31.3h5.4l3-7.1h15l3,7.1Zm-21.3-12,5.5-12.9,5.4,12.9Z" transform="translate(-89.4 -192.9)" fill="#5a6052"/><path d="M547.2,323.8c5.2,0,9.2-1.6,12.1-4.9V308.2h-5.1v8.6a12.3,12.3,0,0,1-7.1,1.9,9.7,9.7,0,0,1-7.2-3,12.3,12.3,0,0,1,0-16.1,10.3,10.3,0,0,1,7.7-3.1,13.1,13.1,0,0,1,4.1.6,9.7,9.7,0,0,1,3.5,2.2l2.7-4a15.7,15.7,0,0,0-21.7.7,17.1,17.1,0,0,0-.1,23.2A14.5,14.5,0,0,0,547.2,323.8Z" transform="translate(-89.4 -192.9)" fill="#5a6052"/><path d="M578.9,292.1l-13.2,31.3h5.4l3-7.1h15l3,7.1h5.4l-13.2-31.3Zm-2.7,19.3,5.4-12.9,5.4,12.9Z" transform="translate(-89.4 -192.9)" fill="#5a6052"/><path d="M623.7,307.1l1-.5,1.2-.8a6.8,6.8,0,0,0,2.2-5.4,8.1,8.1,0,0,0-2.1-5.5,6.9,6.9,0,0,0-3.2-2.1,17,17,0,0,0-5.3-.7H605.9v31.3H619c4.1,0,6.9-.9,8.6-2.9a8.9,8.9,0,0,0,2.2-5.8,7.5,7.5,0,0,0-1.7-4.9A8,8,0,0,0,623.7,307.1ZM610.9,297h6.5a7.6,7.6,0,0,1,4.1.9,3.9,3.9,0,0,1,1.3,3.3c0,2.6-1.8,3.9-5.5,3.9h-6.4Zm12.2,20.6a8.3,8.3,0,0,1-4.3.9h-7.9V310h7.3c4.3,0,6.4,1.4,6.4,4.1S624.1,317,623.1,317.6Z" transform="translate(-89.4 -192.9)" fill="#5a6052"/><polygon points="556 117.1 570.4 117.1 570.4 112.4 556 112.4 556 104.1 572 104.1 572 99.1 551 99.1 551 130.5 572.5 130.5 572.5 125.5 556 125.5 556 117.1" fill="#5a6052"/><polygon points="588.3 99.1 583.2 99.1 583.2 130.5 601.9 130.5 601.9 125.5 588.3 125.5 588.3 99.1" fill="#5a6052"/><polygon points="616.8 99.1 611.7 99.1 611.7 130.5 630.4 130.5 630.4 125.5 616.8 125.5 616.8 99.1" fill="#5a6052"/><polygon points="645.3 125.5 645.3 117.1 659.6 117.1 659.6 112.4 645.3 112.4 645.3 104.1 661.2 104.1 661.2 99.1 640.2 99.1 640.2 130.5 661.7 130.5 661.7 125.5 645.3 125.5" fill="#5a6052"/><path d="M385,372.9c-.2,0-.4.1-.6.5a3.4,3.4,0,0,1-1.8,1.5,7.6,7.6,0,0,1-1.6.3h-2.1a9.3,9.3,0,0,1-2.4-.3c0-1.3-.1-3-.1-5v-3.3l3-.2a7.5,7.5,0,0,1,2,.2,1,1,0,0,1,.4.5v.8c0,.3.1.5.4.5s.4-.3.4-1v-1.1l.5-1.9a.4.4,0,0,0-.4-.4c-.2,0-.4.2-.7.7a1.1,1.1,0,0,1-.8.5H379l-2.6-.2v-5.8c0-.3,0-.4.1-.5h1.6a15,15,0,0,1,4.4.4,1.9,1.9,0,0,1,.9.5,2.1,2.1,0,0,1,.4.6,1,1,0,0,0,.1.4h.3a.2.2,0,0,0,.2-.2,1.3,1.3,0,0,0,.2-.8c0-.5.1-.8.1-1V358c0-.2,0-.3-.1-.4h-12c-.4,0-.7.2-.7.5s.2.4.5.4h1.3a1.9,1.9,0,0,1,.4.8,8.7,8.7,0,0,1,.2,2.8V372a9.6,9.6,0,0,1-.3,3,1,1,0,0,1-1,.7h-.6c-.3,0-.5.1-.5.4s.3.5.7.5h6.5l2.2.2h2.2c.4,0,.7-.1.8-.3a.8.8,0,0,0,.2-.5,4.1,4.1,0,0,0,.3-1,3,3,0,0,0,.3-1.1.8.8,0,0,0,.1-.4C385.2,373,385.1,372.9,385,372.9Z" transform="translate(-89.4 -192.9)" fill="#5a6052"/><path d="M408.6,357.5h-4.5c-.6,0-.9.2-.9.5s.2.4.5.4h.6a.8.8,0,0,1,.7.2c.2.1.3.4.5.9a12.6,12.6,0,0,1,.2,2.6v10.4l-12.2-14.9h-1l-1.7-.2q-.9,0-.9.6a.5.5,0,0,0,.5.4h.7l.6.2a3.6,3.6,0,0,1,.5.9,12.6,12.6,0,0,1,.2,2.6v9.8a8.5,8.5,0,0,1-.3,2.8c-.2.7-.5,1-1,1h-.7c-.3,0-.5.1-.5.4s.3.5.9.5h4.5c.5,0,.7-.2.7-.5s-.1-.4-.4-.4h-.7a.9.9,0,0,1-.7-.3,1.9,1.9,0,0,1-.4-.8,13.1,13.1,0,0,1-.2-2.7V361.5l12.2,14.8c.4.4.6.6.8.6a.2.2,0,0,0,.2-.2c.1-.1.1-.3.1-.6v-14a15.2,15.2,0,0,1,.2-2.8,1.1,1.1,0,0,1,1.1-.9h.6c.4,0,.5-.1.5-.4S409.1,357.5,408.6,357.5Z" transform="translate(-89.4 -192.9)" fill="#5a6052"/><path d="M428.8,357.5h-5.3c-.5,0-.7.2-.7.5s.1.4.5.4h.6a.8.8,0,0,1,.7.2c.2.1.3.4.4.9a12.6,12.6,0,0,1,.2,2.6v9.8a15.2,15.2,0,0,1-.2,2.8c-.2.7-.6,1-1.1,1h-.6c-.4,0-.5.1-.5.4s.3.5.8.5l1.6-.2a12.6,12.6,0,0,1,2.7.1h.9c.6,0,.9-.2.9-.5s-.2-.4-.5-.4h-.6a.9.9,0,0,1-.7-.3c-.2-.1-.3-.4-.4-.8a8.3,8.3,0,0,1-.2-2.7V359.3a.6.6,0,0,1,.3-.6c.2-.2.5-.2,1-.2a3.8,3.8,0,0,1,3,1.3,5,5,0,0,1,1.2,3.5,5.8,5.8,0,0,1-.8,3.2l-.9.9a2.8,2.8,0,0,1-1.3.3,2,2,0,0,1-1.3-.4.6.6,0,0,0-.5-.2h-.3a.4.4,0,0,0-.1.3c0,.2,0,.3.1.4a2.5,2.5,0,0,0,2.1.7,4.6,4.6,0,0,0,3.6-1.6,4.9,4.9,0,0,0,1.6-3.7,5.4,5.4,0,0,0-1.6-4A6.2,6.2,0,0,0,428.8,357.5Z" transform="translate(-89.4 -192.9)" fill="#5a6052"/><path d="M455.3,375.4h-.6a2.7,2.7,0,0,1-1.6-1.3l-4.3-6.6a3.8,3.8,0,0,0,1.3-.9,5.5,5.5,0,0,0,1.9-4.2,4.3,4.3,0,0,0-1.6-3.5,9.1,9.1,0,0,0-4.2-1.3h-5.8c-.5,0-.7.2-.7.5s.1.4.4.4h.7c.3,0,.5,0,.6.2a1.3,1.3,0,0,1,.5.9,12.6,12.6,0,0,1,.2,2.6v9.8a15.2,15.2,0,0,1-.2,2.8c-.2.7-.6,1-1.1,1h-.7c-.3,0-.4.1-.4.4s.2.5.8.5a6,6,0,0,0,1.6-.2,13,13,0,0,1,2.7.1h.9c.6,0,.9-.2.9-.5s-.2-.4-.5-.4h-.7a.7.7,0,0,1-.6-.3,1.2,1.2,0,0,1-.5-.8,13.1,13.1,0,0,1-.2-2.7v-3.7h1.5a2.3,2.3,0,0,1,1.3.3,3.5,3.5,0,0,1,.9,1.1l3.3,5.6c.5.8,1,1.2,1.6,1.2h2.6c.5,0,.7-.1.7-.4S455.8,375.5,455.3,375.4Zm-8.7-8.4h-2.5v-7.6a.7.7,0,0,1,.4-.6c.2-.2.5-.2,1-.2a4.1,4.1,0,0,1,3,1.2,4.6,4.6,0,0,1,1.3,3.5,3.9,3.9,0,0,1-1,2.9A2.9,2.9,0,0,1,446.6,367Z" transform="translate(-89.4 -192.9)" fill="#5a6052"/><path d="M472.9,358.1a9.6,9.6,0,0,0-7.2,0,8.1,8.1,0,0,0-2.9,1.9,9.5,9.5,0,0,0-2.1,3.1,9.2,9.2,0,0,0-.7,3.8,10,10,0,0,0,2.5,7,8.7,8.7,0,0,0,6.5,2.8,9,9,0,0,0,6.7-2.8,9.5,9.5,0,0,0,2.6-6.7,9.7,9.7,0,0,0-2.5-7A8.6,8.6,0,0,0,472.9,358.1Zm1.3,15.3a5.1,5.1,0,0,1-4.2,2.1,6.7,6.7,0,0,1-5.6-2.8,10.8,10.8,0,0,1-1.6-3,11.3,11.3,0,0,1-.6-3.6,8.1,8.1,0,0,1,2-5.5,5.7,5.7,0,0,1,4.5-2.1,6.3,6.3,0,0,1,5.2,2.7,10.3,10.3,0,0,1,2.1,6.7A8.1,8.1,0,0,1,474.2,373.4Z" transform="translate(-89.4 -192.9)" fill="#5a6052"/><path d="M499.9,357.5l-2,.2h-2.3c-.5,0-.8.2-.8.5s.2.4.5.4,1.7.4,1.7,1.2a9,9,0,0,1-.4,1.6l-4.1,12-4.8-12a5.5,5.5,0,0,1-.6-1.9q0-.9,1.5-.9c.4,0,.6-.1.6-.4s-.3-.5-.8-.5h-5l-.6.2c-.2,0-.2.2-.2.3s.2.5.6.5a1.8,1.8,0,0,1,1.1.5l.8,1.6,6.1,15.5c.2.6.5.9.7.9s.4-.2.6-.8l5.7-15.6a3.7,3.7,0,0,1,1-1.8,1.3,1.3,0,0,1,1-.3.5.5,0,0,0,.5-.5C500.7,357.7,500.4,357.5,499.9,357.5Z" transform="translate(-89.4 -192.9)" fill="#5a6052"/><path d="M517.6,372.9c-.2,0-.4.1-.5.5a3.6,3.6,0,0,1-1.9,1.5,7.6,7.6,0,0,1-1.6.3h-2.1a8.5,8.5,0,0,1-2.3-.3c-.1-1.3-.2-3-.2-5v-3.3l3-.2a6.4,6.4,0,0,1,2,.2,1,1,0,0,1,.4.5v.8a.5.5,0,0,0,.4.5c.3,0,.5-.3.5-1v-1.1l.5-1.9c0-.3-.1-.4-.4-.4s-.4.2-.7.7a1.2,1.2,0,0,1-.7.5h-2.3l-2.6-.2v-5.8a2,2,0,0,1,.1-.5h1.6a15,15,0,0,1,4.4.4,1.9,1.9,0,0,1,.9.5,2.1,2.1,0,0,1,.4.6c.1.2.1.4.2.4s.1.1.2.1l.3-.2a5.4,5.4,0,0,0,.1-.8,4.6,4.6,0,0,0,.1-1V358c0-.2,0-.3-.1-.4H505.3c-.5,0-.8.2-.8.5s.2.4.5.4h1.3c.2.1.3.4.5.8a13.5,13.5,0,0,1,.2,2.8V372a9.6,9.6,0,0,1-.3,3,1.1,1.1,0,0,1-1,.7H505c-.3,0-.5.1-.5.4s.3.5.8.5h6.5l2.1.2h2.2c.4,0,.7-.1.8-.3l.3-.5a3.3,3.3,0,0,1,.3-1,8.1,8.1,0,0,1,.3-1.1c0-.2.1-.3.1-.4S517.8,372.9,517.6,372.9Z" transform="translate(-89.4 -192.9)" fill="#5a6052"/><path d="M541.2,357.5h-4.5c-.6,0-.9.2-.9.5s.2.4.5.4h.6c.3,0,.6,0,.7.2a1.3,1.3,0,0,1,.5.9,12.6,12.6,0,0,1,.2,2.6v10.4l-12.2-14.9h-.9l-1.8-.2c-.6,0-.8.2-.8.6a.4.4,0,0,0,.4.4h.7l.7.2a3.9,3.9,0,0,1,.4.9,12.6,12.6,0,0,1,.2,2.6v9.8a8.5,8.5,0,0,1-.3,2.8c-.1.7-.5,1-1,1H523c-.3,0-.4.1-.4.4s.2.5.8.5h4.5c.5,0,.8-.2.8-.5s-.2-.4-.5-.4h-.6a.8.8,0,0,1-.7-.3c-.2-.1-.3-.4-.5-.8a16.4,16.4,0,0,1-.1-2.7V361.5l12.1,14.8c.4.4.6.6.8.6a.2.2,0,0,0,.2-.2c.1-.1.1-.3.1-.6v-14a8.5,8.5,0,0,1,.3-2.8,1,1,0,0,1,1-.9h.7c.3,0,.4-.1.4-.4S541.7,357.5,541.2,357.5Z" transform="translate(-89.4 -192.9)" fill="#5a6052"/><path d="M563.4,371.3q-.1,0-.3.3a6.6,6.6,0,0,1-6.2,3.8,7.5,7.5,0,0,1-5.9-2.5,10,10,0,0,1-2.3-6.6,8.1,8.1,0,0,1,2-5.7,7.8,7.8,0,0,1,2.4-1.6,10.4,10.4,0,0,1,3.3-.5,8.2,8.2,0,0,1,3.5.8,5,5,0,0,1,1.4,1,4.6,4.6,0,0,1,.8,1.3c.1.5.3.7.5.7s.3-.2.3-.6v-.8a5.9,5.9,0,0,0-.1-1.1,1.6,1.6,0,0,0-.3-1.1,1.1,1.1,0,0,0-.5-.4,14.7,14.7,0,0,0-5.5-.9,10.5,10.5,0,0,0-7.5,2.7,9.7,9.7,0,0,0-2.8,7.2,8.4,8.4,0,0,0,2.8,6.6,9.6,9.6,0,0,0,3.2,2,11.5,11.5,0,0,0,4.1.8,10.2,10.2,0,0,0,3.7-.7,9.1,9.1,0,0,0,2.7-1.8q1.2-1.2,1.2-1.8a2.4,2.4,0,0,0-.2-.8Q563.6,371.3,563.4,371.3Z" transform="translate(-89.4 -192.9)" fill="#5a6052"/><path d="M581.2,372.9c-.2,0-.4.1-.6.5a3.2,3.2,0,0,1-1.9,1.5,5.7,5.7,0,0,1-1.5.3H575a8.5,8.5,0,0,1-2.3-.3c-.1-1.3-.1-3-.1-5v-3.3l2.9-.2a7.8,7.8,0,0,1,2.1.2.5.5,0,0,1,.3.5c.1.1.1.4.1.8s.1.5.4.5.4-.3.4-1v-1.1l.4-1.9c0-.3-.1-.4-.3-.4s-.4.2-.7.7a1.1,1.1,0,0,1-.8.5h-2.2l-2.6-.2v-5.8c0-.3,0-.4.1-.5h1.6a15,15,0,0,1,4.4.4,1.2,1.2,0,0,1,.8.5c.2.2.4.4.4.6l.2.4h.3l.2-.2c.1-.1.1-.4.2-.8s.1-.8.1-1V358c0-.2-.1-.3-.1-.4h-12c-.5,0-.7.2-.7.5s.2.4.5.4h1.3a1.9,1.9,0,0,1,.4.8,13.5,13.5,0,0,1,.2,2.8V372a9.6,9.6,0,0,1-.3,3,1.1,1.1,0,0,1-1,.7h-.6c-.3,0-.5.1-.5.4s.2.5.7.5h6.5l2.1.2h2.3a1,1,0,0,0,.8-.3c.1-.1.1-.3.2-.5a4.1,4.1,0,0,0,.3-1,3,3,0,0,0,.3-1.1.8.8,0,0,0,.1-.4C581.4,373,581.3,372.9,581.2,372.9Z" transform="translate(-89.4 -192.9)" fill="#5a6052"/><path d="M339.2,282.1a421.1,421.1,0,0,1-19.1,39.4,74.5,74.5,0,0,0,3.3-21.7c0-1.2-.1-2.4-.1-3.6,0-4.7,1-9,1.7-13.5a69.4,69.4,0,0,0,.5-14.4c-.4-10.8-1.7-21-8.1-29.8-.6-.9-1.7-.2-1.3.8,3.3,8.1,3,17.5,3.1,26.1,0,5.7,1.6,11.2,2,16.8a76.6,76.6,0,0,0-7.4-18.9c0-.1.1-.2.1-.3a17.9,17.9,0,0,0,.6-8.9c-.4-2-1.2-5.6-3.1-6.7a1.5,1.5,0,0,0-2.1.2,10.3,10.3,0,0,0-1.1-2.1c-.7-1.1-1.7-2.8-3-3.2s-3.1,2.3-3.1,4.7a99.6,99.6,0,0,0-24-19.4c2.8-2.7,6.3-5.6,6.9-9.7a9.7,9.7,0,0,0-3.4-8.8.8.8,0,0,0-1.3.6,44.4,44.4,0,0,1-3.3,14.4,42.3,42.3,0,0,0-2.7-9.4,13.5,13.5,0,0,0-3-5.1,2.9,2.9,0,0,0-2-.9c-1.3.2-1.8,1.8-1.7,3.3a18.6,18.6,0,0,0,.4,3.3l-1.5-1.6c-1.4-1.3-2.8-2.2-4.6-1.2s-1.4,2.6-.9,4.1.8,2.2,1.3,3.3l-3.5-1.4c0-.2-.1-.3-.2-.5h0c-10.5-13.9-27.3-26.1-44.8-25-.6,0-1.1,1.2-.3,1.5A381.2,381.2,0,0,1,254,216.9a129.6,129.6,0,0,0-38.8-5.9h-6.7c-.4-4.1-1.2-8.3-3.7-11.5-.7-1.1-2.4-2.8-4.4-2.5a2.1,2.1,0,0,0-1.1.4,8.5,8.5,0,0,0-4.3-2,2.3,2.3,0,0,0-2.8,1.6,2.5,2.5,0,0,0,.1,1.2l-1.2-.4a3.1,3.1,0,0,0-3.5,2.3,3.7,3.7,0,0,0,0,1.8,14.6,14.6,0,0,0,.5,2,17.4,17.4,0,0,0-4.7-2.4,2.5,2.5,0,0,0-1.7.1,2.8,2.8,0,0,0-1.3,3.1,5.6,5.6,0,0,0,.9,2.1,8.6,8.6,0,0,0-2.1-.7H178a10.7,10.7,0,0,0-4.5-1.4,4.9,4.9,0,0,0-2,.3,2.3,2.3,0,0,0-1.1,2.2,2.1,2.1,0,0,0,.7,1.5,4.4,4.4,0,0,0,.9,1.1,15.2,15.2,0,0,0-5.3.5,2.1,2.1,0,0,0-1.7,1.6,25.2,25.2,0,0,0-9.2-.7,1.7,1.7,0,0,0-1.4.7,1.9,1.9,0,0,0-.1,1.5c-1.1.4-2.5,1.1-2.3,2.8a5,5,0,0,0,.8,2l-2.9.4c-2.1.5-3.1,1.3-3,2.5s1.2,1.9,2.5,2.5l-1.1.4c-1.7.6-2.6,1.6-2.5,2.6a2.4,2.4,0,0,0,1.3,1.7,19.8,19.8,0,0,0-4.5.4,9.6,9.6,0,0,0-5.9,3,4,4,0,0,0-.8,1.6,3.1,3.1,0,0,0,1.2,2.7l1.8,1c-2.3,1.9-4.6,3.9-6.7,5.9a.8.8,0,0,0-.7-.1c-15.1,3.4-29.3,14.3-35.4,29.4a.8.8,0,0,0,1.3,1,322.7,322.7,0,0,1,30.4-25.7c-11,12.4-18.3,27.3-20.3,43.3-3.4-1.5-7.4-4-11.2-3.3a8.9,8.9,0,0,0-6.9,6.9c-.2.5.3,1.1.8.9a37.2,37.2,0,0,1,14.7-2.4,39.3,39.3,0,0,0-7.3,6.2,16.2,16.2,0,0,0-3.3,4.9,3,3,0,0,0,0,2.3,1.8,1.8,0,0,0,1.7.9,4.5,4.5,0,0,0,1.9-.5,18.1,18.1,0,0,0,2.9-1.9c-1.3,2.6-2.1,5.6.1,7.2s2.9-.3,4-1.1a7.5,7.5,0,0,0,2.5-2.5,78.2,78.2,0,0,0,13.4,35v.3h0c2.6,17.4,11.3,36.9,27,45,.7.3,1.6-.4,1.1-1.1a424.5,424.5,0,0,1-23-37.6,102.2,102.2,0,0,0,23.4,20.3l.3.3c3.7,2.6,6.6,5.8,9.8,9s7.3,5.8,11.2,8.3c8.8,5.6,17.6,10,28.2,9.2.8,0,1.1-1.4.2-1.6-8-1.5-15.1-6.4-21.8-11a54.9,54.9,0,0,0-7.1-3.9,121.8,121.8,0,0,0,26.1,6.7,18.6,18.6,0,0,0,4.4,6c1.1,1,2.4,2.3,4,2s1.8-1.5,1.3-2.9l.6.4c1,.7,3.1,2.4,4.3,2.1s1-4.2-.4-6.3h4.8l6.4-.2c.4,2.6,1.4,8.4,4.2,12.1.8.9,2.2,2.5,4.1,2.5h.4a1.5,1.5,0,0,0,1.1-.4,8.1,8.1,0,0,0,4.3,2h.4a2.2,2.2,0,0,0,2.4-1.6,2.3,2.3,0,0,0-.1-1.2,5.3,5.3,0,0,0,1.2.3h.5a3,3,0,0,0,3-2.3,4,4,0,0,0,0-1.9,13.3,13.3,0,0,0-.5-1.9,15.2,15.2,0,0,0,4.6,2.3h.8a1.5,1.5,0,0,0,.9-.2,2.8,2.8,0,0,0,1.4-3.1,7.3,7.3,0,0,0-1-2l2.1.6h1.3a10.3,10.3,0,0,0,4.5,1.4h.4a2.8,2.8,0,0,0,1.5-.4,2.2,2.2,0,0,0,1.2-2.2,4.1,4.1,0,0,0-.7-1.5l-.9-.9h.6a17,17,0,0,0,4.6-.6,2.2,2.2,0,0,0,1.7-1.7,22.3,22.3,0,0,0,6.3.9l2.9-.2a1.7,1.7,0,0,0,1.4-.7,1.6,1.6,0,0,0,.1-1.5c1.1-.4,2.5-1.2,2.3-2.9a5,5,0,0,0-.9-2,15.4,15.4,0,0,0,3-.4c2.1-.5,3.1-1.3,2.9-2.5s-1.1-1.9-2.4-2.4l1.1-.4c1.6-.7,2.5-1.6,2.4-2.7a2,2,0,0,0-1.2-1.6,28.1,28.1,0,0,0,4.5-.5,9.6,9.6,0,0,0,5.8-3,4.8,4.8,0,0,0,.8-1.6,3.2,3.2,0,0,0-1.2-2.8,12.3,12.3,0,0,0-2-1A88.9,88.9,0,0,0,317,329.9c.1-.1.2-.1.2-.2h.1c13-11.2,24.6-28.9,23.3-47.2C340.6,281.8,339.5,281.3,339.2,282.1Zm-248,11.2a7.1,7.1,0,0,1,7.8-4.4,26.2,26.2,0,0,1,6.4,2.4A40.1,40.1,0,0,0,91.2,293.3Zm6,11.9c-.7.3-1.4.4-1.5.2s-.1-.3.1-.9a12.1,12.1,0,0,1,2.9-4.3,35.8,35.8,0,0,1,8.2-6.8A21.5,21.5,0,0,1,97.2,305.2Zm10,.4a7.3,7.3,0,0,1-2.6,3.6c-1.3,1.1-3.9,2.3-3.5-.8s2.1-5.2,3.4-7.3l.2-.3a23,23,0,0,0,2.3-3.7c0,.9-.1,1.8-.1,2.7a54.9,54.9,0,0,0,.3,5.8Zm213.5-42.4c0-6-.1-12.4-1.4-18.4,3.9,8,4.5,16.9,4.8,26.1a72.3,72.3,0,0,1-1.2,13.3,48.6,48.6,0,0,0-.8-6.4A89.1,89.1,0,0,1,320.7,263.2Zm-10.3-12.8-.3-.8c.1-.2.3-.2.5-.2s1.3,1.4,1.6,2.3a16.1,16.1,0,0,1,.5,9.7l-1.6-2.6a.6.6,0,0,0,.1-.6,16.9,16.9,0,0,1-1.3-5.9,4.1,4.1,0,0,0-.1-1A.7.7,0,0,0,310.4,250.4Zm-6.5-5.6c.5-1.6,1.6-.3,2.2.4a16.3,16.3,0,0,1,2.4,4.5,16.4,16.4,0,0,0,.1,5.4c-1.5-2.1-3.1-4.2-4.8-6.2v-.3A7,7,0,0,1,303.9,244.8Zm-22.2-33.3a7.4,7.4,0,0,1,1.1,8.2c-1,2.2-2.9,4-4.7,5.7A47.5,47.5,0,0,0,281.7,211.5Zm-12.2-1.1h0c.1,0,.3,0,.7.4a13.2,13.2,0,0,1,2.7,4.5,37.8,37.8,0,0,1,2.7,10.5,21.9,21.9,0,0,1-4.5-6.3H271a24.4,24.4,0,0,1-1.9-7.5C269.1,211.1,269.3,210.4,269.5,210.4Zm-6.4,3.4c1.4-.4,3.1,1.7,3.9,2.7a33.8,33.8,0,0,1,2.7,3.6h0a26.7,26.7,0,0,0,2.5,4.3c-2.3-1.2-4.7-2.4-7.1-3.4S260.7,214.4,263.1,213.8Zm-45.8-19.2c14.1.5,27.5,9.6,37,20.6A362.4,362.4,0,0,0,217.3,194.6ZM200,199c0-.2.3-.3.5-.3h.3c1.2,0,2.4,1.3,2.8,1.9,2.1,2.7,2.8,6.2,3.2,9.8l-1.8-1.9a26,26,0,0,1-4.9-8.6C200.1,199.7,199.9,199.2,200,199Zm-4.4,7.8a4.3,4.3,0,0,1-.9-1,1.4,1.4,0,0,1,0-.9c.2-.5,1.2-.3,1.5-.2s3.8,1.8,7,4.1l.6.8,1.7,1.7-2.5.2h.4A19,19,0,0,1,195.6,206.8Zm-.8-9.7a6.4,6.4,0,0,1,3.6,1.7,4.7,4.7,0,0,0,.3,1.7,27.6,27.6,0,0,0,2,4.7,11.1,11.1,0,0,0-3-1.6,17.2,17.2,0,0,1-3.9-5.6c0-.1-.1-.4-.1-.6A1.1,1.1,0,0,1,194.8,197.1Zm-5.7,3.5a1.5,1.5,0,0,1,1.7-1.1,7.2,7.2,0,0,1,2.7,1.5h0l1.5,2a2.4,2.4,0,0,0-1.7,1.1,3.3,3.3,0,0,0,0,2.4,3.5,3.5,0,0,1,.5.8l-2.8-.9a11.6,11.6,0,0,1-1.9-4.7A2.1,2.1,0,0,1,189.1,200.6Zm8.7,10,2.2,1.2c-2.6.3-5.3.7-7.9,1.2-2.9-1.4-5.7-2.9-6.8-5.3v-.3h.4C188.3,207.1,192.4,208.2,197.8,210.6Zm-15.5-7.4h.8a18,18,0,0,1,4.7,2.5h-2.2a2,2,0,0,0-2,1.5v.3a15.4,15.4,0,0,1-1.7-2.9C181.8,204,182,203.3,182.3,203.2Zm-4.8,4.6c.3-.2.8-.1,1.4,0a26.6,26.6,0,0,1,6.6,2.9h.1a16.2,16.2,0,0,0,3.9,2.8l-2.8.6c-1.7-.5-6.7-1.9-9.3-4.9a2.1,2.1,0,0,1-.4-.6A.7.7,0,0,1,177.5,207.8Zm-5.6-.9a.7.7,0,0,1,.4-.5,2,2,0,0,1,1.1-.2,9,9,0,0,1,2.7.7,2.2,2.2,0,0,0-.6,2.1,3.5,3.5,0,0,0,.8,1.3h0l-1.6-.3a18.1,18.1,0,0,1-2.4-2.4A1.3,1.3,0,0,1,171.9,206.9Zm-4.7,4.8c3.6-1,9.6,0,13,1.6a25.2,25.2,0,0,0,3.4,1.5l-4.4,1.2h-.3a47.9,47.9,0,0,1-11.6-3.3c-.6-.3-.7-.5-.7-.6Zm-4.9,4.6a81.6,81.6,0,0,1,12.1.4h0l1.5.3c-2.6.8-5.1,1.8-7.6,2.7A13.2,13.2,0,0,1,162.3,216.3Zm3.7,4.4-5.5,2.4a7.8,7.8,0,0,1-4.6-1.7c-.4-.4-.9-1-.7-1.5s.2-.4.5-.5a3.6,3.6,0,0,1,2.5-.1l3.3.4,3.3.4Zm-10-8a21.6,21.6,0,0,1,10.7,1.4l1.4.5h-6.2a1.7,1.7,0,0,0-1.3.6l-.2.4a12.1,12.1,0,0,1-4.3-2.6c-.1-.1-.3-.3-.3-.4Zm-.6,2a13.1,13.1,0,0,0,5.9,2.9l.6.5h-.2l-3.3-.5a6.3,6.3,0,0,0-3.3.3h-.2a3.5,3.5,0,0,1-1.3-2.1C153.5,215.3,154.4,214.9,155.4,214.7Zm-6.9,6.2s.2-.4,1.7-.8a19.7,19.7,0,0,1,3.4-.4,3.6,3.6,0,0,0,.8,2.5l-1.8.4C150.4,222.5,148.5,221.3,148.5,220.9Zm.3,4.5a33.3,33.3,0,0,1,6-1.6l1.3-.3a6.6,6.6,0,0,0,2.1.8c-2,1-3.9,2.1-5.8,3.2l-3.6-.4c-1.1-.3-1.4-.6-1.4-.7S147.7,225.8,148.8,225.4ZM138,234.6a1.2,1.2,0,0,1-.5-1.2,1.2,1.2,0,0,1,.4-.8c1.3-1.6,3.5-2.1,4.9-2.4a34.9,34.9,0,0,1,5.9-.4,82.7,82.7,0,0,0-8.3,5.9A10.8,10.8,0,0,1,138,234.6ZM99.2,269.2a49.3,49.3,0,0,1,28.7-23.8A326.3,326.3,0,0,0,99.2,269.2Zm46.4,116.3c-12-7.8-19.3-22.7-22.4-37.1A397,397,0,0,0,145.6,385.5Zm30.8.4c5.1,3.5,10.4,7.1,16.2,9.4-8.5-1-15.9-5.3-23.4-10.2a72.2,72.2,0,0,1-10-8.3C164.6,380.3,171,382.2,176.4,385.9Zm28.1,7.8c-.4.3-1.1-.2-1.5-.4a16.9,16.9,0,0,1-4.9-5.7l3.1.4a.2.2,0,0,1,.2.2c0,.1.1.2.2.3l.3.3a24,24,0,0,1,1.8,2.6C203.9,391.8,205,393.3,204.5,393.7Zm4.3-1.4a23.5,23.5,0,0,1-5.3-4.1l4.9.3a6.4,6.4,0,0,1,1.8,3.2C210.6,393.5,210,393.1,208.8,392.3Zm21.9,8.8a.6.6,0,0,1-.6.3c-1.3.2-2.6-1.2-3.1-1.8-1.7-2.3-3-6-3.7-10.3h.1l2.2,2.3a22.6,22.6,0,0,1,4.9,8.5C230.6,400.4,230.8,400.9,230.7,401.1Zm-6.1-12.8,3.3-.2c2.2.6,3.9,2.2,5.7,3.9l1.5,1.3a3.5,3.5,0,0,1,.8,1,1.5,1.5,0,0,1,.1.9c-.3.5-1.3.2-1.5.2s-3.9-1.8-7.1-4l-.6-.8ZM235.9,403a7,7,0,0,1-3.7-1.7,3.3,3.3,0,0,0-.2-1.7,19.2,19.2,0,0,0-2.1-4.6,16.6,16.6,0,0,0,3,1.5,17.6,17.6,0,0,1,4,5.6c0,.1.1.4.1.6S236.4,403,235.9,403Zm5.7-3.5a1.6,1.6,0,0,1-1.8,1,6,6,0,0,1-2.6-1.4h-.1a14.9,14.9,0,0,0-1.5-2,2.1,2.1,0,0,0,1.7-1.1,2.5,2.5,0,0,0,0-2.4l-.3-.4,2.8.7a13.2,13.2,0,0,1,1.8,4.4A4.8,4.8,0,0,1,241.6,399.5Zm-7.4-9.1a26.9,26.9,0,0,0-3.2-2.7l7.5-1.1c1.9.9,5.5,3,6.9,5.8,0,.2.1.2.1.2a.6.6,0,0,1-.5.2Q240.5,393.1,234.2,390.4Zm14.1,6.4h-.7a17,17,0,0,1-4.6-2.4h2.1c1-.1,1.8-.6,1.9-1.4v-.4a21.2,21.2,0,0,1,1.8,2.9C248.8,396.1,248.6,396.7,248.3,396.8Zm4.9-4.6a2.6,2.6,0,0,1-1.5,0,27.7,27.7,0,0,1-6.6-2.8,15.7,15.7,0,0,0-4.1-3.3l2.7-.6h0c3.1.7,7.3,2.7,9.5,5.2.2.2.4.4.4.6A.8.8,0,0,1,253.2,392.2Zm5.5.8a.7.7,0,0,1-.3.6,1.4,1.4,0,0,1-1.1.1,6.3,6.3,0,0,1-2.7-.6,2.5,2.5,0,0,0,.5-2.1,3.4,3.4,0,0,0-.6-1.2,4.5,4.5,0,0,0,1.6.3,16.7,16.7,0,0,1,2.3,2.3C258.5,392.6,258.7,392.8,258.7,393Zm4.8-4.8a19.8,19.8,0,0,1-12.4-1.2h0a25.8,25.8,0,0,0-4.4-2.2l4.8-1.3a.7.7,0,0,1-.7.3h.4l.5.2a47.9,47.9,0,0,1,11.6,3.3c.6.2.7.4.7.5A.7.7,0,0,1,263.5,388.2Zm4.8-4.6a70,70,0,0,1-12.1-.4h0l-2.4-.5q4.1-1.2,7.8-2.7A12.8,12.8,0,0,1,268.3,383.6Zm-4.2-4.5,5.3-2.4a10.1,10.1,0,0,1,5.3,1.7,2.1,2.1,0,0,1,.7,1.5,1.2,1.2,0,0,1-.6.6,4.8,4.8,0,0,1-2.4.1l-3.4-.4-3.2-.4Zm10.5,8.1a21.6,21.6,0,0,1-10.7-1.4l-1.4-.5h6.2a1.7,1.7,0,0,0,1.3-.6c.1-.1.1-.2.2-.4a13.4,13.4,0,0,1,4.3,2.5c.1.2.3.3.3.5Zm.5-2a12.2,12.2,0,0,0-5.9-2.9c-.1-.2-.3-.3-.5-.5h.1l3.4.5h1.4a3.7,3.7,0,0,0,1.8-.4h.3A3.2,3.2,0,0,1,277,384C277.1,384.6,276.2,384.9,275.1,385.2Zm7-6.2s-.2.4-1.7.7a13.9,13.9,0,0,1-3.5.4,2.6,2.6,0,0,0-.8-2.4l1.9-.4C280.1,377.3,282,378.5,282.1,379Zm-.4-4.6a41.1,41.1,0,0,1-6,1.7l-1.2.3a8.2,8.2,0,0,0-2.6-1l5.8-3.1h0a18.1,18.1,0,0,1,4,.4,3.7,3.7,0,0,1,1.5.6C283.2,373.6,282.8,374,281.7,374.4Zm10.8-9.3a1.3,1.3,0,0,1,.5,1.2c0,.3-.2.5-.4.8a8.6,8.6,0,0,1-4.9,2.5,40.2,40.2,0,0,1-6.3.5c3-2,5.9-4,8.6-6.2v.2A10.9,10.9,0,0,1,292.5,365.1Zm-53.8,19.8h-.1a128.1,128.1,0,0,1-23.4,2.2c-58.9,0-106.7-39.2-106.7-87.3,0-29,17.5-54.8,44.3-70.7h0c2.6-1.5,5.3-3,8-4.3h.3v-.2c2.3-1.1,4.7-2.2,7.2-3.2h.3v-.2c3.3-1.3,6.8-2.5,10.4-3.6h.5a.9.9,0,0,0,.6-.3h0a127.9,127.9,0,0,1,34.9-4.8c58.8,0,106.6,39.1,106.6,87.2C321.8,341.3,286.2,376.1,238.7,384.9Zm81.2-59.8a391.7,391.7,0,0,0,19.2-39C338.8,301,330.2,315,319.9,325.1Z" transform="translate(-89.4 -192.9)" fill="#5a6052"/><path d="M268.7,228.1h-.1A120.8,120.8,0,0,0,215.2,216c-30.9,0-58.7,11-77.6,28.5h-.3L136,246c-15.1,14.5-24.3,33.3-24.3,53.8a69.5,69.5,0,0,0,2.8,19.4l.3.9c4.6,15,14.2,28.4,27.4,39.1,0,.1.1.2.2.3a22.7,22.7,0,0,0,2.5,1.8,111.7,111.7,0,0,0,13.3,8.5l.3.2h.2a118.4,118.4,0,0,0,43.2,13h.3c4.3.4,8.6.7,13,.7l6.4-.2h.1a123,123,0,0,0,35.5-7.1h.1c17.8-6.5,32.9-16.9,43.7-29.8a16.2,16.2,0,0,0,3-3.9c9.2-12.6,14.6-27.2,14.6-42.9C318.6,269.5,298.6,242.8,268.7,228.1Zm45.9,53.8a79.9,79.9,0,0,1,1.7,8.5,45.8,45.8,0,0,0-8.8-13.8c-5.8-6.3-11.6-13-16.9-19.9,9.2,7.1,18.6,13.9,23.8,25ZM300.5,255a76.3,76.3,0,0,1,4.9,6.7l-3.4-1.3a5.8,5.8,0,0,1-2.5-1.9C298.9,257.4,298.8,255.2,300.5,255Zm-27.2-22.6Zm-.4-.2h0a21.5,21.5,0,0,1-3.5,10.5c-.8,1.2-1.6,1.7-2.3,1.7s-1.4-1-1.5-1.9a5.5,5.5,0,0,1,.7-3.2,38,38,0,0,1,5-8Zm-4-2.2,1,.5h-.1c-.1.1-.2.1-.2.2a20.5,20.5,0,0,1-4.5,4.3c-1,.7-5.1,3.3-5.7,2.3s2.6-4,3.6-4.6a23.1,23.1,0,0,1,5.5-2.6Zm-6.4-1.7a33.4,33.4,0,0,1,4,1,18.1,18.1,0,0,0-6.2,3.5l-1.1,1.2a2.8,2.8,0,0,1-.9-5.2A6.1,6.1,0,0,1,262.5,228.3Zm-14.8-6.4,7.3,2.3a46,46,0,0,0-15.7,2.4,123.4,123.4,0,0,1-14.7,4.2l-8.5,2.4c9.9-5.4,19.6-11,31.1-11A.5.5,0,0,0,247.7,221.9Zm-39.5-4.1h.6a17.1,17.1,0,0,1-.9,3c-.2.5-.3.9-.5,1.5-.9,2.8-2.2,4.6-3.8,5.5s-.5.2-.7.1-.3-.3-.4-.5a5.9,5.9,0,0,1,.2-1.3,8.8,8.8,0,0,1,.5-1.5h0A15,15,0,0,1,208.2,217.8Zm-10.5,14.7v-.2a5.6,5.6,0,0,1,.6-2.3,10,10,0,0,0,1.5-2.9l1.2-.6a2.4,2.4,0,0,0,0,1.2,2.3,2.3,0,0,0,1.6,1.8h.3a15.8,15.8,0,0,1-1.6,3.5,4.6,4.6,0,0,1-1.4,1.7,1.4,1.4,0,0,1-1.5.2C197.5,234.5,197.6,233,197.7,232.5Zm-.7-3.4a2.2,2.2,0,0,1-2,.7,1.7,1.7,0,0,1-1.1-1.3,4.1,4.1,0,0,1,0-1.9,5.7,5.7,0,0,0,1.3-.8,3.4,3.4,0,0,0,2.8,1.7A8.6,8.6,0,0,1,197,229.1Zm8.5-11.1a16.4,16.4,0,0,0-3.7,5.9h0c-.1.2-.6.5-.8.7a6.8,6.8,0,0,1-2.7,1.3,1.8,1.8,0,0,1-1.8-1.1,3.2,3.2,0,0,1,1-2.2,38.8,38.8,0,0,1,3.9-4.2Zm-16.1,7.3a15.5,15.5,0,0,1,1.8-5.1l-.3-.2c2.6-.5,5.3-1,8-1.3a34.5,34.5,0,0,0-2.6,2.8,7,7,0,0,0-1.3,2.4,15.6,15.6,0,0,1-2.5,1.7c-.7.4-2.1,1-3,.4v-.2C189.3,225.7,189.4,225.4,189.4,225.3Zm-1.5,1a2.3,2.3,0,0,0,.7,1l.6.3c-1.5,1.7-3.3,3.5-5.5,4.2a1.7,1.7,0,0,1-1,.1l-.4-.3a1.3,1.3,0,0,1,.2-.9,60,60,0,0,1,6.6-9.8,19.6,19.6,0,0,0-1.3,4.1A3,3,0,0,0,187.9,226.3Zm-7.2,5.6a8.7,8.7,0,0,1-4.6,2h-.6a1.8,1.8,0,0,1,.3-.8,45.9,45.9,0,0,1,3.3-4.4.1.1,0,0,1,.1.1,5.9,5.9,0,0,0,1.7-.4l1.7-1.1c-.5.9-1,1.7-1.4,2.6A3.7,3.7,0,0,0,180.7,231.9Zm-1.8-6.4a13,13,0,0,1,2.1-3.1h0l6.1-1.6-1.3,1.8h0c-3.5,3.1-4.9,4-5.5,4.3s-1.4.4-1.6,0S178.6,226.2,178.9,225.5Zm-4.8-.9,4.3-1.4-.9,1.6c-.8,1.6-.5,2.5-.1,3.1l.2.2-.5.6c-2.1,1.1-7.5,2.7-8.8,1.9a.5.5,0,0,1-.2-.4c0-1.1,3.2-3.3,4.6-4.3l1.6-1.1Zm.8,6.7a18.1,18.1,0,0,1-7.9,5.2c-.8.3-1.3.3-1.7,0a1.2,1.2,0,0,1-.3-1.1,2.7,2.7,0,0,1,.5-1.5,5.7,5.7,0,0,0,2.4-1.7l1.6.2A16.8,16.8,0,0,0,174.9,231.3Zm-14.4,1.3h0a3.6,3.6,0,0,1,1.1-2.4l-.2-.2,7.9-3.6c-1.7,1.4-2.8,2.6-2.8,3.8a1.2,1.2,0,0,0,.3.9,4.4,4.4,0,0,1-2,1.3,13.3,13.3,0,0,1-3.4,1h-.7a1,1,0,0,1-.2-.7Zm-.7,2.1.4.2a7.4,7.4,0,0,1-3.4,2.6h-.6l-.2.2-.3-.5a15.6,15.6,0,0,0,3.7-3.1A1,1,0,0,0,159.8,234.7Zm-8.6,2.1a.9.9,0,0,0,.1-.5c.1-.3.1-.4.3-.5h-.1c2.5-1.6,5.1-3.1,7.7-4.5-.1.2-.1.5-.2.8a13.4,13.4,0,0,1-7.2,5.4h-.5A.7.7,0,0,1,151.2,236.8Zm-1.8.3a12.4,12.4,0,0,1-6.1,4.5C145.3,240,147.3,238.5,149.4,237.1ZM127,258.7l3.4-4.5a48.2,48.2,0,0,0-3.2,9c-1.5,6.3-3.2,12.8-5.2,19.1.5-8,.8-15.8,4.9-23.3C126.9,258.9,127,258.8,127,258.7Zm-13.4,34.7a19.1,19.1,0,0,1,10.6-.6,3.2,3.2,0,0,1,2.5,1.6,2.1,2.1,0,0,1-1.1,2.3,6.4,6.4,0,0,1-3.1.6,38.6,38.6,0,0,1-9.1-1.8C113.5,294.8,113.5,294.1,113.6,293.4Zm-.2,3.8,1.8.5a21.9,21.9,0,0,1,4,2.1c1,.7,5,3.5,4.7,4.9s-5-.9-6-1.5a24.4,24.4,0,0,1-4.6-4.5A7.6,7.6,0,0,1,113.4,297.2Zm5.9,8.4,1.4.5c.5,2.2-1.3,4.3-3.4,3.6s-2.4-2.3-2.8-3.7a35.5,35.5,0,0,1-.8-4.7A16.8,16.8,0,0,0,119.3,305.6ZM116.4,320c5.6,6.1,12.5,11.1,18.7,16.3s11.5,9.4,17.5,13.7A63.7,63.7,0,0,1,133,339.6a62.9,62.9,0,0,1-9.8-9.5c-2.3-2.7-5.3-6.2-6.7-9.8C116.5,320.2,116.4,320.1,116.4,320Zm36.2,44.6a42.7,42.7,0,0,0,13.2,1.6c9-.4,18.1-.5,27.1-.1-11.2,2.5-22.3,5.5-33.7,2.4A71.6,71.6,0,0,1,152.6,364.6Zm49.3,16.7a37.8,37.8,0,0,1-4.7-.6c1.2-2,2.9-4.5,4.9-5.5s2.4-.3,2.6,1.2a4.4,4.4,0,0,1-.7,2.2A9.3,9.3,0,0,1,201.9,381.3Zm5.3.5-3.2-.3h.2a8.3,8.3,0,0,1,4.8-2.5c.9-.2,2.6-.4,1.2.7l-2.8,2A.2.2,0,0,0,207.2,381.8Zm16,0h-1.3a14.4,14.4,0,0,1,.8-2.5,12.1,12.1,0,0,1,.5-1.4c.9-2.9,2.1-4.7,3.7-5.5a1.1,1.1,0,0,1,.7-.2c.2,0,.3.3.4.6a3,3,0,0,1-.1,1.3,5.6,5.6,0,0,0-.4,1.2,1.4,1.4,0,0,0-.2.6h0A12.1,12.1,0,0,1,223.2,381.8Zm9.6-14.2v.2a5.6,5.6,0,0,1-.5,2.3,9.2,9.2,0,0,0-1.6,2.9l-1.2.6a2,2,0,0,0,0-1.1,2.3,2.3,0,0,0-1.6-1.9h-.3a15.8,15.8,0,0,1,1.6-3.5,4.9,4.9,0,0,1,1.3-1.8,1.6,1.6,0,0,1,1.6-.2C233,365.6,232.9,367.2,232.8,367.6Zm.7,3.4a2.3,2.3,0,0,1,2-.8,1.8,1.8,0,0,1,1.1,1.4,3.7,3.7,0,0,1,0,1.8l-1.3.9a3.3,3.3,0,0,0-2.7-1.7A5.1,5.1,0,0,1,233.5,371ZM230,381.2l-4.2.4a14.1,14.1,0,0,0,3.1-5.5l.6-.6a8,8,0,0,1,2.7-1.2c.8-.1,1.7.3,1.8,1s-.4,1.5-1,2.2l-.9,1.3C231.4,379.6,230.9,380.3,230,381.2Zm11.2-6.5a15.8,15.8,0,0,1-1.7,4.9c-2.3.5-4.7.9-7.1,1.2l.9-1,.9-1.2a5.6,5.6,0,0,0,1.3-2.4,22,22,0,0,1,2.5-1.7c.7-.4,2.1-1,3-.4s.2.2.2.2Zm2.5,1.6a31.5,31.5,0,0,1-2.2,2.9h-.1a14.7,14.7,0,0,0,1.3-4.2,2,2,0,0,0-.1-1.3,1.5,1.5,0,0,0-.7-.9l-.5-.3c1.5-1.8,3.2-3.6,5.4-4.2a2.4,2.4,0,0,1,1-.2c.2.1.4.2.4.4s-.1.6-.2.8a67.7,67.7,0,0,1-4.1,6.8l-.2.2Zm6.1-8.2a8.7,8.7,0,0,1,4.6-2c.5-.1.6,0,.6,0h0a1.8,1.8,0,0,1-.3.8,45.9,45.9,0,0,1-3.3,4.4,4.2,4.2,0,0,0-1.8.3l-1.7,1.1c.5-.9,1-1.7,1.4-2.6A3,3,0,0,0,249.8,368.1Zm1.9,6.4a11.7,11.7,0,0,1-1.7,2.6l-6,1.6,1-1.4a28.7,28.7,0,0,1,5.2-4.2c.7-.2,1.4-.4,1.7,0A1.9,1.9,0,0,1,251.7,374.5Zm6.1-.5-1.2.9-4.1,1.4a3.7,3.7,0,0,0,.5-1.1c.8-1.6.5-2.6.1-3.1s-.1-.1-.2-.2l.5-.6c2.2-1.1,7.5-2.8,8.8-1.9s.2.1.2.4S259.2,373.1,257.8,374Zm-2.2-5.3a19.3,19.3,0,0,1,7.9-5.3,2.1,2.1,0,0,1,1.6,0,1,1,0,0,1,.4,1.1,2.7,2.7,0,0,1-.5,1.5,5.8,5.8,0,0,0-2.4,1.8C260.8,367.1,257.8,367.9,255.6,368.7Zm14.4-1.4h0a4,4,0,0,1-1,2.3c-2.2,1.1-4.5,2.2-6.9,3.2,1.2-1.1,1.9-2.1,1.9-3.1a1.6,1.6,0,0,0-.3-.9,5.3,5.3,0,0,1,2-1.3,19.1,19.1,0,0,1,3.4-1,1.6,1.6,0,0,1,.7,0,1,1,0,0,1,.2.7Zm.7-2.1-.4-.2a7,7,0,0,1,3.4-2.6c.4-.2.6-.1.6-.1s0-.1.2-.2l.2.4a21.7,21.7,0,0,0-3.6,3.2A1,1,0,0,0,270.7,365.2Zm8.6-2.2a2,2,0,0,0-.1.7c-2.5,1.6-5.1,3.2-7.8,4.6a1.1,1.1,0,0,1,.1-.5,13.7,13.7,0,0,1,7.2-5.3h.4a.1.1,0,0,1,.1.1A.7.7,0,0,1,279.3,363Zm1.7-.5c1.3-3.3,2.7-5.5,5.8-5.1l.7.3Zm22-21.2a9.5,9.5,0,0,1-1.2,1.6c1.9-7.5,2.4-15.6,3.4-23.2s1.8-16.1,2.3-24.3a72.4,72.4,0,0,1,1.4,25,66.2,66.2,0,0,1-3.2,14A39.4,39.4,0,0,1,303,341.3Zm7.1-18.4a73.8,73.8,0,0,0-2.4-32.7.8.8,0,0,0-1.5.2c-.4,9.3-1.2,18.5-2.4,27.7s-1.7,19.1-4.4,27.9a89.3,89.3,0,0,1-10.7,10.6,3.6,3.6,0,0,0-1.7-.8c-4.1-.5-5.9,2.4-7.1,5.2l-.4-.2a2.1,2.1,0,0,0-1.2.1l-2.5,1a1.4,1.4,0,0,0-.7-1,2.3,2.3,0,0,0-1.8-.1,9.4,9.4,0,0,0-4.9,4.2l-1.4.3c0-.2.1-.5.1-.7a3.1,3.1,0,0,0-1.1-2.5,2.8,2.8,0,0,0-2.9-.3,20.6,20.6,0,0,0-6.6,3.8l-.3-.5a2,2,0,0,0-2-.7,11,11,0,0,0-5.4,2.4l-.7-.3a3.1,3.1,0,0,0-1.7.2c-3,.9-5.2,3.5-6.9,5.6a2.7,2.7,0,0,0-1.2.3,3.2,3.2,0,0,0-.2-1.4,3.3,3.3,0,0,0-2.2-2.5,2.2,2.2,0,0,0-1.6,0v-.9c.2-2-.4-3.5-1.5-4.1a2.7,2.7,0,0,0-3.2.3,5.7,5.7,0,0,0-1.9,2.2,24.1,24.1,0,0,0-2.1,5,11.2,11.2,0,0,0-4,6.2l-.5,1.4a15.8,15.8,0,0,0-.9,3.1H209.8c1.9-1.3,4.3-3.4,1.8-4.5s-3.1-.2-4.3.2l-1.4.6c.7-1.8.6-3.6-1.1-4.6-3.8-2.1-7.6,4-9.3,6.9a123.3,123.3,0,0,1-30.9-9.3c11.6,1.3,22.9-2.6,34.4-4.7,1-.2.6-1.8-.4-1.6h-.1a.5.5,0,0,0-.4-.2,278.6,278.6,0,0,0-28.9-.3c-7.7.3-16.4-.1-23.3-4.4-11.8-8.8-21-19.8-26.5-32.2a68.5,68.5,0,0,0,10.7,11.5,65.5,65.5,0,0,0,26.6,13.6.8.8,0,0,0,.6-1.5,280.3,280.3,0,0,1-22.2-17.2c-6.6-5.5-14.1-10.9-19.6-17.7a.1.1,0,0,1-.1-.1,74.3,74.3,0,0,1-1.6-8.2,5.7,5.7,0,0,0,2.5,2.6,4.3,4.3,0,0,0,4.4-.1,5,5,0,0,0,1.5-4.2c1.4.3,2.8.3,3.4-.7s-2.5-4.6-3.6-5.6a9,9,0,0,0-1.9-1.5l2.3.2h.4a6.6,6.6,0,0,0,3.6-.8,3.8,3.8,0,0,0,1.7-4.3c-.4-1.3-1.6-2.1-3.5-2.6a19.7,19.7,0,0,0-10.5.4l-.3-.3a71.9,71.9,0,0,1,8.8-25.8c-2,7.5-1.8,15.2-2.6,23.3v.2a.8.8,0,0,0,.8.6.7.7,0,0,0,.7-.6c2.6-7.5,4.8-15.3,6.7-23.1s4.2-13.7,9-18.9a53.4,53.4,0,0,1,4.4-3.9l.6.3h1.3a14.5,14.5,0,0,0,6.8-4.7l.7.4h.4l.8-.2a13,13,0,0,0,2.5-1,1.5,1.5,0,0,0,1.6,1.3h.9a9.4,9.4,0,0,0,4.9-4.2l1.4-.3c0,.2-.1.5-.1.7a2.8,2.8,0,0,0,1,2.5,2.4,2.4,0,0,0,1.6.5,3.6,3.6,0,0,0,1.4-.2,20.3,20.3,0,0,0,6.6-3.7c.1.2.1.4.2.5a1.9,1.9,0,0,0,1.6.7h.5a10,10,0,0,0,5.4-2.3l.6.3h.6l1.2-.2c3-.9,5.2-3.4,6.9-5.5l1.2-.3a5.9,5.9,0,0,0,.2,1.4,3.3,3.3,0,0,0,2.2,2.5h1.6v.9c-.2,2,.4,3.5,1.5,4.1a2.2,2.2,0,0,0,1.3.4,3.3,3.3,0,0,0,1.9-.6,8.3,8.3,0,0,0,1.9-2.3,22.1,22.1,0,0,0,2.1-5c1.8-1.1,3.1-3.1,4.1-6.1a5.8,5.8,0,0,1,.5-1.4,14.3,14.3,0,0,0,.9-3.7h4.9a121.1,121.1,0,0,1,27.9,3.2c-12.4,1.4-22.9,8.7-34.1,14.3h-.2c0,.1-.1.1-.1.2h0a.8.8,0,0,0,.1.8.1.1,0,0,0,.1.1h0l.5.2h.2c9.3-2.1,18.8-4.7,27.9-7.6,7.1-2.4,15.1-4.2,22.5-2.5a5.2,5.2,0,0,0-3.7,1.8,4.4,4.4,0,0,0,1.8,7.1c-.7,1.1-1.2,2.3-.8,3.3s4.3.1,5.7-.5a17.5,17.5,0,0,0,2.9-1.8,19.5,19.5,0,0,0-1,2.2,8.6,8.6,0,0,0-.9,4.2,3.6,3.6,0,0,0,3.1,3.2h.1c1.2,0,2.4-.8,3.4-2.4a21.3,21.3,0,0,0,3.7-10.1l.6-.2h0a94.2,94.2,0,0,1,24.5,20.4,3.8,3.8,0,0,0-1.5,5c1.5,3.5,5.8,3.6,8.5,5.4h.5a64,64,0,0,1,5.2,10.5c-6.7-9.6-16.6-15.8-25.5-23.2a.7.7,0,0,0-1.1,0,.8.8,0,0,0,0,1.2c5.7,7.7,12,15.3,18.4,22.4S316.4,290,317,299.8h0a68.5,68.5,0,0,1-9.9,35.4A64.9,64.9,0,0,0,310.1,322.9Z" transform="translate(-89.4 -192.9)" fill="#5a6052"/><path d="M247.1,339.9l-.9.6c-4.8,3.3-10.8,5-17.9,5a25.6,25.6,0,0,1-18.6-7.8c-5.1-5.2-7.7-12.1-7.7-20.5s2.7-15.4,7.9-20.7a26.8,26.8,0,0,1,19.4-7.9,32,32,0,0,1,10.4,1.6,23.8,23.8,0,0,1,7.4,4.1l4.2-6.2c-6.2-5.1-13.8-7.7-22.9-7.7a33.3,33.3,0,0,0-24.7,10.5,34.2,34.2,0,0,0-7.9,12.2c-.9-6.1-1.6-12.4-.1-18.1.2-.8-1-1.2-1.4-.6-3.4,5.6-4.2,11.8-3.9,18.4l-.3-.4a28.5,28.5,0,0,1-7.9-20.4c0-8.1,2.7-14.8,8-20.1a26.4,26.4,0,0,1,19.4-7.8,28.1,28.1,0,0,1,11.3,2.1,34.5,34.5,0,0,1,8.5,5.9l4.6-6.3a33.4,33.4,0,0,0-24.2-10c-10.4,0-19.1,3.5-25.9,10.5s-10.3,15.8-10.3,26.2,2.8,17.5,8.2,24l-.8-.5c-8.3-5.4-16.5-9.5-26.1-8.1-.7.1-.9,1.5,0,1.7,7.3,1.1,14.1,5.9,20.4,10.4s12.8,5.6,18.2,10.2c.1,1.3.3,2.6.5,3.9a30.8,30.8,0,0,0-4.8-3.2,13.5,13.5,0,0,0-5.2-2.1,3.1,3.1,0,0,0-2.1.5c-1,1-.5,2.5.4,3.5a15.8,15.8,0,0,0,2.3,2.2l-2.2-.3c-1.8-.1-3.4.1-4.3,1.9s.4,2.7,1.6,3.5l1.5,1h-1.9a8.2,8.2,0,0,0-3.9,1.5,3.5,3.5,0,0,0-1,4.4h.1q1,1.7,3.9,1.8a32.6,32.6,0,0,0,5.8-.6,5,5,0,0,0-1.6,3.3A4,4,0,0,0,188,346c.1,1.2.4,2.5,1.3,2.9s3.4-2.4,4.2-3.7a19.4,19.4,0,0,0,1.3-3c.1.8.3,1.6.4,2.3a7.2,7.2,0,0,0,1.7,3.5,3.2,3.2,0,0,0,4.2.7h.2c.9-.7,1.4-1.9,1.3-3.8a14.3,14.3,0,0,0-.3-2.9l1.2,1.2a33.5,33.5,0,0,0,24.9,10.3c11.5,0,20.5-3.5,26.8-10.4V320.4h-8.1Zm-53.7-24a4.6,4.6,0,0,0-.7-.7l.7.4Zm0-26a68.6,68.6,0,0,0,1.4,15.6l.3-.3-.5,1.3-2.1-1.8-.6-.5C191.6,299.2,191.8,294.4,193.4,289.9Zm-32.7,9.5c7.7.6,14.7,4.8,21.8,9.4a75.2,75.2,0,0,1,9.6,8.3c-5.2-3.4-11.1-5.1-16.2-8.6S166,301.5,160.7,299.4Zm22.3,21h.8a12.8,12.8,0,0,1,4.7,1.8,30.7,30.7,0,0,1,5.9,4.3c.2.6.3,1.2.5,1.7a19.5,19.5,0,0,1-11.4-6.4C183,321.3,182.8,320.6,183,320.4Zm1.4,20.5a6.1,6.1,0,0,1,3.1-2.8l3.7-1.6a18.1,18.1,0,0,0-2.9,6.3c-.1.4-.1.9-.2,1.5A2.6,2.6,0,0,1,184.4,340.9Zm16.7,4c0,1.3-.2,2.2-.8,2.6a2,2,0,0,1-2.3-.5,6.5,6.5,0,0,1-1.3-2.9,38,38,0,0,1-.5-9,.6.6,0,0,0-.6-.6h-.3a.8.8,0,0,0-.7.7v.2h0a22.7,22.7,0,0,1-1.2,6.3c-.4,1.1-2.2,5.5-3.2,5.2s-.2-4.6.2-5.7a22,22,0,0,1,3-5.1.7.7,0,0,0,0-.9h0c0-.1-.1-.3-.4-.7a.9.9,0,0,0-1.1-.2,31,31,0,0,1-13.4,3.1,3.1,3.1,0,0,1-2.7-1,2.1,2.1,0,0,1,.7-2.4,7.1,7.1,0,0,1,3.1-1.1c2.6-.4,9.4.1,12.3.4.3.1.6-.1.7-.5v-.3c.1-.4-.2-.7-.6-.8l-6.3-.5h-.2c-1.4-.2-7.2-2.4-5.7-4.3s3.4-.5,4.6-.3a33.1,33.1,0,0,1,4.2,1.2h0a22.6,22.6,0,0,0,6.8,2.2A33.9,33.9,0,0,0,200,339,22.8,22.8,0,0,1,201.1,344.9Z" transform="translate(-89.4 -192.9)" fill="#5a6052"/></svg>
