<svg id="e344e971-0c76-4c5e-9962-b3244bc5cc8e" data-name="Calque 1" xmlns="http://www.w3.org/2000/svg" viewBox="0 0 323.1 259.4"><title>logo-CDLG-vertcypres-monogramme</title><path d="M580.9,278.8c-.1-.9-1.4-1.5-1.9-.5a467.1,467.1,0,0,1-24.5,48.4,85.5,85.5,0,0,0,4.2-26.6c0-1.5,0-3-.1-4.5.1-5.7,1.3-11,2.3-16.6a79.6,79.6,0,0,0,.6-17.6c-.5-13.2-2.2-25.6-10.4-36.5a1,1,0,0,0-1.7,1c4.2,10,3.9,21.4,4,32,0,6.9,2,13.7,2.6,20.6a90.3,90.3,0,0,0-9.6-23.2l.2-.3a21.6,21.6,0,0,0,.7-11c-.5-2.4-1.6-6.8-3.9-8.1a2,2,0,0,0-2.7.2,13.5,13.5,0,0,0-1.5-2.6c-.9-1.4-2.2-3.4-3.8-3.9-3.2-1-4,2.8-4,5.7a131.3,131.3,0,0,0-30.9-23.7c3.7-3.4,8.2-6.9,9-11.9a11.5,11.5,0,0,0-4.4-10.7,1,1,0,0,0-1.7.7,52.3,52.3,0,0,1-4.3,17.5,52.3,52.3,0,0,0-3.4-11.5,18.5,18.5,0,0,0-3.9-6.1,3.1,3.1,0,0,0-2.5-1.1c-1.8.2-2.4,2.1-2.3,4a27.6,27.6,0,0,0,.6,4,18,18,0,0,0-2-1.9c-1.8-1.6-3.6-2.7-5.9-1.5s-1.8,3.2-1.1,5a28.3,28.3,0,0,0,1.7,4l-4.6-1.6c0-.3,0-.5-.2-.6h0c-13.5-17-35.1-32-57.5-30.6-.9,0-1.5,1.4-.5,1.9a468.8,468.8,0,0,1,52,27.4,172,172,0,0,0-49.9-7.3l-8.5.2c-.6-5-1.6-10.2-4.7-14.1-1-1.3-3.1-3.4-5.8-3.1a3.4,3.4,0,0,0-1.4.5,10.6,10.6,0,0,0-5.5-2.5c-1.6-.1-3.2.4-3.6,2a2.4,2.4,0,0,0,.2,1.5l-1.6-.5a4,4,0,0,0-4.5,2.8,5.9,5.9,0,0,0,0,2.3,8.6,8.6,0,0,0,.6,2.3c-1.9-1.2-4.1-2.5-6-2.8a3,3,0,0,0-2.1,0c-1.5.6-2,2.4-1.8,3.9a7.5,7.5,0,0,0,1.3,2.5,10.9,10.9,0,0,0-2.8-.8l-1.6-.2h0a13.4,13.4,0,0,0-5.7-1.7,5.5,5.5,0,0,0-2.5.4,2.9,2.9,0,0,0-1.5,2.7,3.1,3.1,0,0,0,.9,1.8l1.2,1.4a21.2,21.2,0,0,0-6.8.5c-1.6.5-2.1,1.4-2.2,2.1a32.8,32.8,0,0,0-11.8-1,2.4,2.4,0,0,0-1.8.9,1.8,1.8,0,0,0-.1,1.9c-1.5.4-3.3,1.4-3,3.4a6.6,6.6,0,0,0,1,2.5,15.7,15.7,0,0,0-3.7.5q-4.1.8-3.9,3c.1,1.3,1.5,2.3,3.2,3l-1.4.5c-2.1.8-3.3,2-3.2,3.3a3,3,0,0,0,1.6,2,33,33,0,0,0-5.8.5c-2.2.4-5.3,1.2-7.5,3.6a6.2,6.2,0,0,0-1,2,3.8,3.8,0,0,0,1.5,3.4,8.2,8.2,0,0,0,2.3,1.1c-3,2.4-5.8,4.8-8.6,7.3a.8.8,0,0,0-.8-.1c-19.5,4.1-37.7,17.5-45.5,36a1,1,0,0,0,1.5,1.2,405.2,405.2,0,0,1,39.2-31.4c-14.2,15.2-23.6,33.3-26.1,53-4.4-1.9-9.5-4.9-14.4-4.1a11.4,11.4,0,0,0-8.9,8.4.9.9,0,0,0,1.1,1.2,52.5,52.5,0,0,1,18.8-3,53.6,53.6,0,0,0-9.4,7.7,19.4,19.4,0,0,0-4.2,6,3.5,3.5,0,0,0,0,2.7,2.3,2.3,0,0,0,2.2,1.2,5.3,5.3,0,0,0,2.4-.6,23.5,23.5,0,0,0,3.7-2.4c-1.6,3.3-2.6,6.9.2,8.8s3.7-.3,5.2-1.3a11.8,11.8,0,0,0,3.2-3.1,92.3,92.3,0,0,0,17.2,42.9v.4h0c3.3,21.4,14.5,45.2,34.7,55.1.8.4,2-.5,1.4-1.4a493,493,0,0,1-29.6-46A126.9,126.9,0,0,0,335,386.4l.4.3c4.8,3.2,8.4,7.1,12.6,11.1s9.3,7.1,14.4,10.2c11.3,6.8,22.6,12.1,36.2,11.3,1.1-.1,1.5-1.8.3-2-10.3-1.9-19.5-7.9-28.1-13.5a60.7,60.7,0,0,0-9.1-4.8,163.5,163.5,0,0,0,33.6,8.2,22.3,22.3,0,0,0,5.6,7.3c1.4,1.3,3.1,2.9,5.2,2.6s2.3-1.9,1.7-3.6l.7.5c1.3.8,4,2.9,5.6,2.5s1.2-5.1-.5-7.7h6l8.4-.2c.4,3.2,1.7,10.2,5.4,14.8.9,1.2,2.8,3,5.2,3h.5a2.9,2.9,0,0,0,1.4-.5,10.1,10.1,0,0,0,5.6,2.4h.5c1.4,0,2.8-.6,3-2.1a3.8,3.8,0,0,0-.1-1.5l1.6.5h.6a3.9,3.9,0,0,0,3.9-2.8,5.9,5.9,0,0,0,0-2.3,15.5,15.5,0,0,0-.7-2.3c2,1.2,4.2,2.5,6,2.8h1a2,2,0,0,0,1.1-.2,3.5,3.5,0,0,0,1.8-3.8,7.5,7.5,0,0,0-1.3-2.5l2.8.8h1.6a13.4,13.4,0,0,0,5.8,1.7h.5a4.3,4.3,0,0,0,1.9-.4,2.9,2.9,0,0,0,1.5-2.7,3.4,3.4,0,0,0-.9-1.8l-1.1-1.2h.8a22.1,22.1,0,0,0,5.9-.8c1.7-.4,2.1-1.4,2.1-2a32.3,32.3,0,0,0,8.2,1h3.7a2.8,2.8,0,0,0,1.8-.9,2.1,2.1,0,0,0,.1-1.9c1.5-.5,3.3-1.4,3-3.5a10.1,10.1,0,0,0-1.1-2.4,24.7,24.7,0,0,0,3.8-.5c2.6-.6,3.9-1.6,3.8-3.1s-1.5-2.3-3.2-3l1.4-.5c2.1-.8,3.3-1.9,3.1-3.2s-.3-1.4-1.6-2a43.3,43.3,0,0,0,5.8-.6c2.2-.4,5.4-1.3,7.5-3.7a3.4,3.4,0,0,0,1-2,3.5,3.5,0,0,0-1.5-3.3,12.5,12.5,0,0,0-2.6-1.3c14.5-11.2,25.9-25,33-40.3l.3-.2h0C567.7,323,582.5,301.3,580.9,278.8ZM260.3,292.1a9.1,9.1,0,0,1,10-5.4,29.6,29.6,0,0,1,8.3,3A51.6,51.6,0,0,0,260.3,292.1Zm7.7,14.5c-.9.4-1.8.5-1.9.2s-.2-.3.1-1a17.3,17.3,0,0,1,3.7-5.3,49.9,49.9,0,0,1,10.5-8.3A25.9,25.9,0,0,1,268,306.6Zm12.8.6a9.3,9.3,0,0,1-3.2,4.4c-1.7,1.2-5,2.8-4.6-1s2.8-6.4,4.5-9a.4.4,0,0,0,.1-.3,22.7,22.7,0,0,0,3-4.6v3.4c0,2.3.1,4.7.3,7.1Zm274.6-51.9c-.1-7.5-.2-15.3-1.9-22.7,5,9.9,5.8,20.7,6.1,32a81.4,81.4,0,0,1-1.5,16.4,41.6,41.6,0,0,0-.9-7.9A89.6,89.6,0,0,1,555.4,255.3ZM542,239.5l-.3-1a.4.4,0,0,1,.6-.2c1.3.1,1.7,1.7,2.1,2.8a20.2,20.2,0,0,1,.7,11.9l-2.1-3.2a.6.6,0,0,0,0-.7,22.2,22.2,0,0,1-1.6-7.2,6.6,6.6,0,0,0-.1-1.3A.8.8,0,0,0,542,239.5Zm-8.3-6.8c.7-2,2.1-.4,2.9.5a18.3,18.3,0,0,1,3,5.5,16.4,16.4,0,0,0,.2,6.6,90.6,90.6,0,0,0-6.3-7.6c.1-.2.1-.3,0-.4A9,9,0,0,1,533.7,232.7Zm-28.5-40.9a9.1,9.1,0,0,1,1.4,10.1c-1.3,2.7-3.7,4.9-6.1,7A53,53,0,0,0,505.2,191.8Zm-15.7-1.3h0c.2,0,.4.1.9.5a18.2,18.2,0,0,1,3.5,5.5,51.3,51.3,0,0,1,3.5,12.9,26.8,26.8,0,0,1-5.9-7.8h0a24.7,24.7,0,0,1-2.5-9.2C488.9,191.4,489.2,190.5,489.5,190.5Zm-8.3,4.2c1.8-.5,4,2.1,5.1,3.3s2.3,2.9,3.4,4.4h0a25.5,25.5,0,0,0,3.3,5.2l-9.2-4.1C482.4,202.2,478.2,195.5,481.2,194.7Zm-58.8-23.6c18.2.7,35.3,11.9,47.5,25.3A490.3,490.3,0,0,0,422.4,171.1Zm-22.3,5.4c.1-.2.5-.3.7-.3h.3c1.7,0,3.1,1.6,3.7,2.3,2.6,3.3,3.6,7.6,4.1,12l-2.3-2.4a29,29,0,0,1-6.3-10.4A2.5,2.5,0,0,1,400.1,176.5Zm-5.6,9.6a3.5,3.5,0,0,1-1.1-1.3,1.2,1.2,0,0,1-.1-1c.3-.6,1.6-.3,2-.2s4.9,2.1,9,4.9a3.9,3.9,0,0,0,.8,1,21.8,21.8,0,0,0,2.2,2.1l-3.2.3a.4.4,0,0,1,.5-.1A25.4,25.4,0,0,1,394.5,186.1Zm-2.4-11.5c.1-.3.8-.4,1.4-.4a8.6,8.6,0,0,1,4.6,2.2,4.9,4.9,0,0,0,.3,2,29.7,29.7,0,0,0,2.7,5.7,36.4,36.4,0,0,0-3.8-2c-2-1.7-4.4-4.5-5.1-6.8C392.2,175.2,392.1,174.8,392.1,174.6Zm-6,3.9a2,2,0,0,1,2.3-1.3,8,8,0,0,1,3.4,1.8h0a17.9,17.9,0,0,0,2,2.6,2.6,2.6,0,0,0-2.2,1.3,3,3,0,0,0,0,2.9,3.6,3.6,0,0,0,.7,1l-3.8-1.1a15.6,15.6,0,0,1-2.4-5.7A6.6,6.6,0,0,1,386.1,178.5Zm11.2,12.2a26.9,26.9,0,0,0,2.9,1.6c-3.4.4-6.8.8-10.2,1.4-3.7-1.7-7.3-3.6-8.8-6.5v-.4h.6C385.1,186.5,390.4,187.9,397.3,190.7Zm-19.9-9h1a23.4,23.4,0,0,1,6.1,3.1,14.5,14.5,0,0,0-2.9-.1c-1.4.1-2.3.7-2.5,1.7v.4a16.2,16.2,0,0,1-2.2-3.5A1.6,1.6,0,0,1,377.4,181.7Zm-6.2,5.6a4,4,0,0,1,1.9,0c2.2.4,5.9,2.2,8.5,3.6h0a25.8,25.8,0,0,0,5,3.4l-3.5.7c-2.3-.5-8.7-2.3-12-6l-.5-.7A1,1,0,0,1,371.2,187.3Zm-7.1-1c-.1-.3.2-.6.4-.7a3.2,3.2,0,0,1,1.4-.2,13.7,13.7,0,0,1,3.5.8,2.7,2.7,0,0,0-.7,2.6,3.5,3.5,0,0,0,.9,1.6h.1l-2.1-.4a26.8,26.8,0,0,1-3.1-2.9A2,2,0,0,1,364.1,186.3Zm-6.2,5.8c4.7-1.3,12.5,0,16.8,2a22.7,22.7,0,0,0,4.4,1.8l-5.6,1.5h-.4a70.9,70.9,0,0,1-15-4.1c-.7-.3-.9-.6-.9-.7Zm-6.2,5.7a89,89,0,0,1,15.5.5h.1l1.9.4c-3.3,1-6.6,2.1-9.8,3.4A19.1,19.1,0,0,1,351.7,197.8Zm4.7,5.3-7,3c-2.1-.2-4.7-.9-5.9-2.1a2.2,2.2,0,0,1-1-1.8c.1-.3.4-.5.8-.7a5.4,5.4,0,0,1,3.1-.1l4.3.5,4.2.5Zm-12.8-9.8a32.1,32.1,0,0,1,13.8,1.7l1.7.7c-2.6-.1-5.3,0-8,.1a2.2,2.2,0,0,0-1.6.7c-.1.2-.2.3-.2.5a15,15,0,0,1-5.5-3.1l-.5-.6Zm-.7,2.4a15.8,15.8,0,0,0,7.6,3.6l.7.6H351l-4.4-.5a7.3,7.3,0,0,0-4.1.2l-.3.2a3.8,3.8,0,0,1-1.7-2.6C340.3,196.5,341.6,196.1,342.9,195.7Zm-9,7.6s.3-.5,2.3-.9a21.2,21.2,0,0,1,4.4-.5,3.9,3.9,0,0,0,1,3.1l-2.4.5C336.4,205.3,334,203.8,333.9,203.3Zm.4,5.6a42.5,42.5,0,0,1,7.8-2l1.6-.3a16.9,16.9,0,0,0,2.7,1l-7.4,3.8a24,24,0,0,1-4.6-.5c-1.5-.3-1.9-.7-1.9-.8S333,209.4,334.3,208.9Zm-13.8,11.3a1.7,1.7,0,0,1-.7-1.5,1.4,1.4,0,0,1,.5-.9c1.8-2,4.5-2.7,6.4-3.1a54.3,54.3,0,0,1,7.5-.5c-3.7,2.3-7.3,4.7-10.7,7.3A11.8,11.8,0,0,1,320.5,220.2Zm-49.9,42.3c7.6-14.1,21.5-24.5,36.8-29.1A412.4,412.4,0,0,0,270.6,262.5ZM330.2,405c-15.4-9.6-24.7-27.8-28.7-45.5A476.8,476.8,0,0,0,330.2,405Zm39.6.5c6.5,4.2,13.4,8.7,20.8,11.5-10.9-1.3-20.4-6.5-30-12.4a92.5,92.5,0,0,1-12.9-10.3C354.7,398.7,362.9,401,369.8,405.5Zm36.1,9.6c-.5.3-1.4-.3-1.8-.6a21.2,21.2,0,0,1-6.4-6.9l4,.4.3.3.2.3a.8.8,0,0,0,.4.4c.8,1.1,1.6,2.1,2.3,3.2S406.6,414.6,405.9,415.1Zm5.5-1.7a30.4,30.4,0,0,1-6.7-5.1l6.3.4a7.3,7.3,0,0,1,2.2,3.9C413.8,414.8,413.1,414.3,411.4,413.4Zm28.2,10.7a.7.7,0,0,1-.7.4c-1.8.2-3.4-1.5-4-2.3-2.2-2.7-3.9-7.3-4.8-12.5h.2l2.8,2.8a29,29,0,0,1,6.3,10.4C439.5,423.3,439.7,423.9,439.6,424.1Zm-7.8-15.6,4.3-.3c2.7.8,4.9,2.7,7.2,4.7l1.9,1.7a4,4,0,0,1,1.1,1.2,1.5,1.5,0,0,1,.1,1.1c-.3.6-1.6.3-2,.2s-4.9-2.1-9-4.9l-.8-1ZM447.7,426c-.1.4-.8.5-1.4.4a8,8,0,0,1-4.7-2.1,4.6,4.6,0,0,0-.3-2,29.7,29.7,0,0,0-2.7-5.7,22.7,22.7,0,0,0,3.9,1.9c1.9,1.8,4.3,4.6,5,6.8A1.9,1.9,0,0,1,447.7,426Zm5.9-3.8a2,2,0,0,1-2.2,1.2,10.3,10.3,0,0,1-3.5-1.7h0a24.3,24.3,0,0,0-2-2.5,2.6,2.6,0,0,0,2.2-1.3,3.2,3.2,0,0,0,0-3l-.3-.5a23.7,23.7,0,0,0,3.6.9,15.4,15.4,0,0,1,2.2,5.4A3.8,3.8,0,0,1,453.6,422.2ZM444.2,411a43.5,43.5,0,0,0-4.2-3.3c3.2-.3,6.5-.8,9.6-1.3,2.5,1.1,7.1,3.7,8.9,7a1.6,1.6,0,0,1,.1.4H458C454.2,414.1,449.5,413.2,444.2,411Zm18.1,7.9a3.4,3.4,0,0,1-1,0,23.5,23.5,0,0,1-5.9-3h2.7c1.4-.1,2.3-.7,2.5-1.7v-.5a19.1,19.1,0,0,1,2.2,3.5C462.9,417.9,462.7,418.7,462.3,418.9Zm6.2-5.7a4,4,0,0,1-1.9,0c-2.2-.4-5.8-2.1-8.4-3.4a23.8,23.8,0,0,0-5.3-4l3.4-.7h0c4,.9,9.4,3.3,12.3,6.4l.5.7A1,1,0,0,1,468.5,413.2Zm7.1,1c.1.3-.2.6-.4.7a3.2,3.2,0,0,1-1.4.2,10.5,10.5,0,0,1-3.5-.8,2.7,2.7,0,0,0,.7-2.6,3.2,3.2,0,0,0-.8-1.4l2.1.4a24.4,24.4,0,0,1,2.9,2.7A2,2,0,0,1,475.6,414.2Zm6.1-5.9c-4.4,1.3-11.3.7-15.9-1.5h0a40.5,40.5,0,0,0-5.6-2.6l6.1-1.6a.7.7,0,0,1-.8.3l.5.2.6.2a66.6,66.6,0,0,1,15,4,2.1,2.1,0,0,1,.9.6C482.5,408,482.3,408.1,481.7,408.3Zm6.2-5.7a89.2,89.2,0,0,1-15.5-.4h0l-3-.6c3.4-1,6.7-2.1,10-3.4A18.1,18.1,0,0,1,487.9,402.6Zm-5.3-5.5,6.7-2.9c2.3.1,5.4.9,6.8,2.2a2.2,2.2,0,0,1,1,1.8c-.1.3-.4.5-.8.7a5.4,5.4,0,0,1-3.1.1l-4.3-.5-4.2-.5Zm13.5,10a31.9,31.9,0,0,1-13.8-1.7l-1.8-.6h2.1l5.9-.2a2.2,2.2,0,0,0,1.6-.7l.3-.5a15.9,15.9,0,0,1,5.5,3.1l.4.5Zm.7-2.5a17.6,17.6,0,0,0-7.6-3.5l-.8-.6h.2l4.4.5,1.8.2a4.6,4.6,0,0,0,2.3-.5h.3a4.3,4.3,0,0,1,1.8,2.6C499.3,403.9,498.1,404.3,496.8,404.6Zm8.9-7.6s-.3.5-2.3.9a31.8,31.8,0,0,1-4.3.6,4.4,4.4,0,0,0-1.1-3.1l2.4-.5C503.1,395,505.6,396.5,505.7,397Zm-.5-5.5a72.7,72.7,0,0,1-7.7,2l-1.6.3a11.7,11.7,0,0,0-3.3-1.1c2.6-1.2,5-2.5,7.4-3.9h0a30.5,30.5,0,0,1,5.2.5,3.6,3.6,0,0,1,1.9.8C507,390.4,506.6,390.9,505.2,391.5ZM519,380.1a1.6,1.6,0,0,1,.7,1.4,1.9,1.9,0,0,1-.5,1c-1.7,2-4.5,2.7-6.4,3.1a49,49,0,0,1-8,.5c3.8-2.4,7.5-4.9,11-7.5v.2A10.2,10.2,0,0,1,519,380.1Zm-69.1,24.2h-.1a174.9,174.9,0,0,1-30.2,2.6c-75.5,0-137-47.9-137-106.8,0-35.6,22.4-67.2,56.9-86.7h0c3.3-1.9,6.8-3.6,10.3-5.2h.4V208l9.4-4h.4v-.2a140.1,140.1,0,0,1,13.4-4.4h.7a.9.9,0,0,0,.7-.4h0a172.4,172.4,0,0,1,44.8-5.9c75.6,0,137.1,47.9,137.1,106.9C556.7,350.9,511,393.5,449.9,404.3Zm104.4-73.2A514.3,514.3,0,0,0,579,283.3C578.5,301.4,567.5,318.7,554.3,331.1Z" transform="translate(-257.9 -169.1)" style="fill:#5a6052"/><path d="M488.4,212.2h0a162.6,162.6,0,0,0-68.8-14.8c-39.6,0-75.3,13.5-99.7,34.8-.1.1-.3.1-.4.3l-1.6,1.6c-19.5,17.8-31.2,40.9-31.2,66a82.5,82.5,0,0,0,3.6,23.7,7.6,7.6,0,0,0,.4,1.1c5.9,18.4,18.3,34.8,35.1,47.8l.3.5a37.8,37.8,0,0,0,3.3,2.2,137.2,137.2,0,0,0,17,10.3.5.5,0,0,0,.5.3h.2a158.5,158.5,0,0,0,55.5,15.8h.4c5.5.5,11,.8,16.6.8l8.3-.2h.2a163.9,163.9,0,0,0,45.6-8.6h.2c22.8-7.9,42.2-20.6,56.1-36.5a15.7,15.7,0,0,0,3.8-4.7c11.9-15.4,18.8-33.4,18.8-52.5C552.6,262.9,526.8,230.2,488.4,212.2Zm59,65.9a74.3,74.3,0,0,1,2.3,10.4,58.5,58.5,0,0,0-11.4-16.9c-7.5-7.8-14.8-15.9-21.7-24.3,11.8,8.7,24,17,30.6,30.6C547.3,278,547.4,278,547.4,278.1Zm-18.1-33a95.5,95.5,0,0,1,6.3,8.3l-4.3-1.6a6.8,6.8,0,0,1-3.2-2.4C527.3,248.1,527.2,245.4,529.3,245.1Zm-34.9-27.7h0Zm-.5-.2h0a25.2,25.2,0,0,1-4.6,12.9c-1,1.4-2,2.1-2.8,2.1a2.6,2.6,0,0,1-2-2.3,7.3,7.3,0,0,1,.9-4,48.4,48.4,0,0,1,6.4-9.8Zm-5.2-2.7,1.2.6v.2l-.2.2a28.7,28.7,0,0,1-5.7,5.3c-1.3.8-6.6,4-7.4,2.8s3.4-4.9,4.6-5.7a31.9,31.9,0,0,1,7.1-3.1A.5.5,0,0,0,488.7,214.5Zm-8.2-2.1c1.7.3,3.4.8,5.1,1.2a22,22,0,0,0-7.9,4.4l-1.4,1.4A3.5,3.5,0,0,1,475,213,8.6,8.6,0,0,1,480.5,212.4Zm-19-7.8,9.4,2.8a58.9,58.9,0,0,0-20.2,3q-9.3,3-18.9,5.1c-3.7.8-7.3,1.9-10.9,2.9,12.7-6.5,25.2-13.4,39.9-13.5A.8.8,0,0,0,461.5,204.6Zm-50.9-5h.8a17.3,17.3,0,0,1-1.1,3.7,18.9,18.9,0,0,0-.6,1.8c-1.2,3.4-2.8,5.6-4.9,6.7a1.8,1.8,0,0,1-.9.2,1.3,1.3,0,0,1-.5-.7,4.7,4.7,0,0,1,.2-1.6l.6-1.8h.1A18.4,18.4,0,0,1,410.6,199.6Zm-13.4,18v-.3a7.7,7.7,0,0,1,.7-2.7,11.7,11.7,0,0,0,2-3.6l1.5-.7a7.1,7.1,0,0,0,.1,1.4,2.7,2.7,0,0,0,2,2.2h.4a23.9,23.9,0,0,1-2,4.3,7.4,7.4,0,0,1-1.8,2.1,2.1,2.1,0,0,1-2,.3C397,220.1,397.1,218.1,397.2,217.6Zm-.9-4.2a2.7,2.7,0,0,1-2.5.9,2.2,2.2,0,0,1-1.5-1.6,4.4,4.4,0,0,1,.1-2.3l1.6-1.1a3.9,3.9,0,0,0,3.5,2.1A6.7,6.7,0,0,1,396.3,213.4Zm5.7-13.1,5.3-.5a20.9,20.9,0,0,0-4.9,7.2h0a2.6,2.6,0,0,1-.9.9,8.3,8.3,0,0,1-3.5,1.5,2.1,2.1,0,0,1-2.3-1.2c-.2-.9.5-1.9,1.3-2.8A48.1,48.1,0,0,1,402,200.3Zm-15.5,8.5a19.9,19.9,0,0,1,2.3-6.3l-.3-.2c3.3-.7,6.7-1.2,10.2-1.6l-3.3,3.4a7.5,7.5,0,0,0-1.6,2.9,22,22,0,0,1-3.2,2.1c-1,.5-2.8,1.3-3.9.5l-.2-.3C386.4,209.2,386.5,208.9,386.5,208.8Zm-1.9,1.2a2.7,2.7,0,0,0,.9,1.2l.7.4c-1.9,2.1-4.2,4.3-7,5.1a2.9,2.9,0,0,1-1.3.1.5.5,0,0,1-.5-.4c-.1-.2.2-.7.3-1a71.7,71.7,0,0,1,8.4-12,29.1,29.1,0,0,0-1.6,5A4.5,4.5,0,0,0,384.6,210Zm-9.2,6.9a13.1,13.1,0,0,1-6,2.4h-.8a2.6,2.6,0,0,1,.5-1c1.3-1.8,2.7-3.6,4.2-5.3h.2a6.3,6.3,0,0,0,2.1-.5,7.7,7.7,0,0,0,2.2-1.3l-1.8,3.2A3.7,3.7,0,0,0,375.4,216.9ZM373,209a14.9,14.9,0,0,1,2.8-3.8h-.1l7.9-2-1.7,2.2h0c-4.4,3.9-6.3,5-7.1,5.3s-1.8.5-2.1,0S372.6,209.8,373,209Zm-6.1-1.1,5.5-1.8-1.2,2c-.9,2-.6,3.2-.1,3.8l.3.3a2.7,2.7,0,0,0-.7.8c-2.7,1.2-9.6,3.3-11.3,2.2-.2-.1-.2-.2-.2-.5s4.1-4,5.9-5.2l2-1.3Zm1,8.2a24.6,24.6,0,0,1-10.2,6.4,2.5,2.5,0,0,1-2.1,0,1.7,1.7,0,0,1-.5-1.3,5.4,5.4,0,0,1,.7-1.9,8.9,8.9,0,0,0,3.2-2.1,5.6,5.6,0,0,0,2,.3A24.2,24.2,0,0,0,367.9,216.1Zm-18.5,1.7h0a4.9,4.9,0,0,1,1.4-3l-.3-.2c3.3-1.6,6.7-3.1,10.2-4.4-2.1,1.6-3.6,3.1-3.5,4.6a3.6,3.6,0,0,0,.2,1.1,5.7,5.7,0,0,1-2.5,1.6,20.9,20.9,0,0,1-4.3,1.1c-.2.1-.8.2-.9,0s-.3-.3-.3-.8Zm-.9,2.5.5.2a9.4,9.4,0,0,1-4.4,3.2,1.3,1.3,0,0,1-.8.1.4.4,0,0,1-.2.3l-.3-.6a18.7,18.7,0,0,0,4.6-3.8Zm-11,2.6c0-.2.1-.5.1-.7a1.1,1.1,0,0,1,.3-.6h-.1c3.2-1.9,6.5-3.8,9.9-5.5-.1.3-.1.7-.2,1a17.5,17.5,0,0,1-9.3,6.5.6.6,0,0,1-.6.1h-.1A.6.6,0,0,1,337.5,222.9Zm-2.4.3a15,15,0,0,1-7.8,5.5C329.8,226.8,332.4,225,335.1,223.2Zm-28.8,26.5c1.4-1.9,2.9-3.7,4.5-5.5a58.3,58.3,0,0,0-4.2,10.9c-2,7.9-4.2,15.8-6.7,23.5.6-9.9,1.1-19.3,6.3-28.5C306.2,250,306.3,249.8,306.3,249.7Zm-17.2,42.5a25.5,25.5,0,0,1,13.7-.7c1.7.4,2.8,1,3.1,1.9s-.4,2.2-1.3,2.8a8.1,8.1,0,0,1-4.1.7,44.4,44.4,0,0,1-11.6-2.1C289,293.9,289,293.1,289.1,292.2Zm-.3,4.7,2.3.6a24.9,24.9,0,0,1,5.2,2.5c1.3.9,6.5,4.4,6,6s-6.4-1-7.6-1.8a31.4,31.4,0,0,1-6-5.5A10.9,10.9,0,0,0,288.8,296.9Zm7.6,10.2,1.9.7a3.6,3.6,0,0,1-4.4,4.4c-1.9-.6-3.1-2.8-3.6-4.5a39.5,39.5,0,0,1-1.1-5.8A21.8,21.8,0,0,0,296.4,307.1Zm-3.7,17.7c7.1,7.4,16.1,13.6,24.1,20s14.7,11.4,22.4,16.7A83.3,83.3,0,0,1,314,348.7a81.4,81.4,0,0,1-12.6-11.6c-2.9-3.3-6.8-7.5-8.6-12C292.8,325,292.7,324.9,292.7,324.8Zm46.5,54.6a55.3,55.3,0,0,0,17,2c11.5-.5,23.2-.6,34.8-.2-14.4,3.1-28.6,6.8-43.3,3C344.8,382.7,341.9,381.1,339.2,379.4Zm63.4,20.5-6-.7c1.6-2.5,3.7-5.6,6.3-6.8s3.1-.4,3.3,1.5a4.8,4.8,0,0,1-.9,2.6A9.9,9.9,0,0,1,402.6,399.9Zm6.8.6-4.2-.4h.3a11.8,11.8,0,0,1,6.2-3.1c1.2-.2,3.4-.4,1.6.8l-3.7,2.5Zm20.6-.1h-1.7c.3-1,.6-1.9,1-3l.6-1.8c1.2-3.5,2.8-5.7,4.9-6.7l.8-.3a.9.9,0,0,1,.5.7,4.3,4.3,0,0,1-.1,1.6l-.5,1.5-.3.8h0A13.6,13.6,0,0,1,430,400.4Zm12.3-17.3v.3a6.4,6.4,0,0,1-.7,2.7,11.4,11.4,0,0,0-1.9,3.6l-1.6.7a3.3,3.3,0,0,0,0-1.4,2.7,2.7,0,0,0-2-2.2h-.5a24.4,24.4,0,0,1,2.1-4.3,5.8,5.8,0,0,1,1.7-2.1,2.1,2.1,0,0,1,2-.3C442.5,380.6,442.4,382.5,442.3,383.1Zm.9,4.2a2.2,2.2,0,0,1,4.1.7,4,4,0,0,1-.1,2.2l-1.6,1.1a4.4,4.4,0,0,0-3.6-2.1A8.8,8.8,0,0,1,443.2,387.3Zm-4.5,12.4-5.4.5a16.4,16.4,0,0,0,4-6.8l.8-.6a10,10,0,0,1,3.5-1.6,2.1,2.1,0,0,1,2.3,1.3c.2.9-.5,1.9-1.3,2.7a9.8,9.8,0,0,1-1.2,1.5A24.4,24.4,0,0,1,438.7,399.7Zm14.4-7.9a17.3,17.3,0,0,1-2.2,6c-2.9.6-6,1.1-9,1.5a14.7,14.7,0,0,0,1-1.3l1.3-1.5a8.5,8.5,0,0,0,1.6-2.8,16.6,16.6,0,0,1,3.2-2.2c1-.5,2.7-1.2,3.9-.4s.2.2.2.2Zm3.3,1.9a35.1,35.1,0,0,1-2.9,3.6h-.1a19.5,19.5,0,0,0,1.6-5.2,2.9,2.9,0,0,0,0-1.6,3.5,3.5,0,0,0-1-1.2l-.7-.3c1.9-2.2,4.2-4.4,7-5.2a3.7,3.7,0,0,1,1.3-.2l.6.4a2.5,2.5,0,0,1-.4,1.1,65.8,65.8,0,0,1-5.3,8.3.3.3,0,0,1-.1.2Zm7.7-10a13.3,13.3,0,0,1,6-2.5h.8a1.8,1.8,0,0,1-.4,1c-1.3,1.8-2.8,3.7-4.3,5.4a4.7,4.7,0,0,0-2.2.4,13.8,13.8,0,0,0-2.2,1.3l1.8-3.2A3,3,0,0,0,464.1,383.7Zm2.5,7.8a12.1,12.1,0,0,1-2.2,3.2l-7.7,2,1.3-1.8c4.2-3.7,6-4.7,6.7-5s1.8-.5,2.1-.1S466.9,390.7,466.6,391.5Zm7.9-.5-1.6,1-5.3,1.8a9.1,9.1,0,0,0,.7-1.4c1-1.9.6-3.1.1-3.8a.2.2,0,0,0-.2-.2,2.7,2.7,0,0,1,.7-.8c2.7-1.3,9.5-3.4,11.2-2.3.2.1.3.2.3.4S476.3,389.8,474.5,391Zm-2.9-6.6a25.5,25.5,0,0,1,10.2-6.5,2.4,2.4,0,0,1,2.1.1,1.6,1.6,0,0,1,.5,1.3,5.5,5.5,0,0,1-.6,1.8,6.7,6.7,0,0,0-3.2,2.2C478.4,382.5,474.5,383.5,471.6,384.4Zm18.5-1.7h0a4.2,4.2,0,0,1-1.2,2.8c-2.9,1.4-5.9,2.7-8.9,3.9,1.5-1.3,2.4-2.5,2.4-3.7a2,2,0,0,0-.3-1.1,5.5,5.5,0,0,1,2.5-1.7,22.6,22.6,0,0,1,4.3-1.1,1.7,1.7,0,0,1,1,0c.1.1.2.3.2.8Zm.9-2.5c-.1-.2-.3-.2-.5-.3a9.4,9.4,0,0,1,4.4-3.2,1.3,1.3,0,0,1,.8-.1.4.4,0,0,1,.2-.3l.3.6a17.1,17.1,0,0,0-4.6,3.9Zm11-2.8a3.4,3.4,0,0,0-.1.9c-3.2,2-6.5,3.9-10,5.7a1.3,1.3,0,0,0,.1-.6,18.2,18.2,0,0,1,9.3-6.6h.6a.1.1,0,0,0,.1.1A.6.6,0,0,1,502,377.4Zm2.3-.6c1.7-4,3.4-6.7,7.5-6.2l.8.3C509.9,373,507.2,374.9,504.3,376.8Zm28.3-25.9-1.5,2c2.3-9.2,3-19.2,4.2-28.5s2.4-19.8,3-29.7a82.9,82.9,0,0,1,1.8,30.6,84.9,84.9,0,0,1-4,17.1A61,61,0,0,1,532.6,350.9Zm9.1-22.6a87.4,87.4,0,0,0-3.1-40,1,1,0,0,0-2,.2c-.4,11.4-1.5,22.7-3,34s-2.2,23.4-5.7,34.1a105.7,105.7,0,0,1-13.7,13,6.6,6.6,0,0,0-2.2-1c-5.3-.6-7.6,3-9.1,6.4l-.6-.2a2.8,2.8,0,0,0-1.6.1,19.8,19.8,0,0,0-3.1,1.2,1.8,1.8,0,0,0-.9-1.2,3,3,0,0,0-2.4-.2,12,12,0,0,0-6.2,5.2l-1.9.4a2.9,2.9,0,0,0,.2-.9,3.7,3.7,0,0,0-1.3-3.1,4.4,4.4,0,0,0-3.8-.3,26.5,26.5,0,0,0-8.5,4.6,1.6,1.6,0,0,0-.3-.6,3,3,0,0,0-2.7-.8,15.7,15.7,0,0,0-6.9,2.9l-.9-.3a4,4,0,0,0-2.2.2c-3.9,1.1-6.7,4.2-8.9,6.8l-1.5.4a11,11,0,0,0-.2-1.8,4.4,4.4,0,0,0-2.9-3,3.8,3.8,0,0,0-2.1,0c0-.2.1-.5.1-.8v-.3c.3-2.4-.4-4.2-1.9-5a3.8,3.8,0,0,0-4.1.3,8,8,0,0,0-2.4,2.8,31.4,31.4,0,0,0-2.7,6.2c-2.2,1.3-3.9,3.8-5.2,7.5l-.6,1.7a16.6,16.6,0,0,0-1.1,3.8l-6.7.2-6.9-.2c2.5-1.6,5.6-4.1,2.3-5.5-1.6-.8-3.9-.2-5.5.3a11.5,11.5,0,0,0-1.7.6c.8-2.2.8-4.4-1.5-5.5-4.8-2.6-9.7,4.8-11.9,8.4a158.3,158.3,0,0,1-39.8-11.5c15,1.6,29.5-3.1,44.3-5.7,1.3-.2.8-2.2-.5-1.9h-.1l-.6-.2a353.2,353.2,0,0,0-37.1-.4c-10,.3-21.2-.2-30-5.4-15.1-10.8-26.9-24.3-34.1-39.5a92,92,0,0,0,13.8,14.1,87.4,87.4,0,0,0,34.2,16.7,1,1,0,0,0,.8-1.8c-9.9-6.6-19.4-13.7-28.6-21.1s-18.1-13.4-25.2-21.7a.1.1,0,0,0-.1-.1,69.4,69.4,0,0,1-2-10.1,7.6,7.6,0,0,0,3.1,3.3c1.6.7,4.3.9,5.7-.2s2-3.3,1.9-5.1c1.8.4,3.7.3,4.4-1s-3.1-5.6-4.6-6.8a18.8,18.8,0,0,0-2.4-1.8l3,.2h.4a8.5,8.5,0,0,0,4.7-1c1.6-1,3-3.1,2.2-5.2s-2.1-2.6-4.6-3.2a28,28,0,0,0-13.5.4l-.3-.3A82.8,82.8,0,0,1,300.7,258c-2.7,9.2-2.3,18.6-3.4,28.5a.6.6,0,0,0,.1.4.9.9,0,0,0,.9.6,1,1,0,0,0,1-.7c3.2-9.2,6.1-18.8,8.5-28.3s5.5-16.8,11.7-23.2l5.5-4.8.8.4h1.7a17.7,17.7,0,0,0,8.7-5.7l1,.5h1.5a17.5,17.5,0,0,0,3.2-1.2,1.8,1.8,0,0,0,.9,1.2l1.2.3,1.2-.2a11,11,0,0,0,6.2-5.1l1.9-.4a3,3,0,0,0-.2,1,3.3,3.3,0,0,0,1.3,3,3.7,3.7,0,0,0,2.1.6l1.7-.2a26.5,26.5,0,0,0,8.5-4.6.9.9,0,0,0,.4.6,2.1,2.1,0,0,0,1.9.9h.7a15.2,15.2,0,0,0,7-2.8l.8.3h.7a6.5,6.5,0,0,0,1.6-.3c3.8-1.1,6.6-4.2,8.8-6.7l1.6-.4a4.7,4.7,0,0,0,.2,1.7,4.3,4.3,0,0,0,2.9,3.1h.9l1.1-.2a2.8,2.8,0,0,1-.1.9v.2c-.3,2.4.4,4.3,1.9,5.1a3.3,3.3,0,0,0,1.7.4,4.4,4.4,0,0,0,2.4-.7,8,8,0,0,0,2.4-2.8,27.7,27.7,0,0,0,2.7-6.1c2.3-1.4,4-3.8,5.3-7.5l.6-1.7a29.6,29.6,0,0,0,1.3-4.5h6.1a168.3,168.3,0,0,1,36,3.8c-15.9,1.7-29.5,10.7-43.9,17.5h-.2l-.2.2h0a1.2,1.2,0,0,0,.1,1l.2.2h0a.9.9,0,0,0,.7.3h.2c12-2.5,24.2-5.7,35.9-9.4,9.1-2.8,19.4-5.1,28.9-3a7.1,7.1,0,0,0-4.8,2.2,5.3,5.3,0,0,0,2.4,8.7c-1,1.4-1.6,2.9-1,4.1s5.5.1,7.2-.7a23.2,23.2,0,0,0,3.8-2.1l-1.4,2.7a9.7,9.7,0,0,0-1,5.1,4.5,4.5,0,0,0,3.9,4h.2c1.5,0,3-1,4.4-3a26.5,26.5,0,0,0,4.7-12.4l.7-.2h0a123.4,123.4,0,0,1,31.6,25,4.7,4.7,0,0,0-2,6.2c2,4.3,7.4,4.4,11,6.6a.7.7,0,0,0,.6.1,91.8,91.8,0,0,1,6.7,12.8c-8.6-11.6-21.4-19.3-32.8-28.3-.4-.6-1-.4-1.4,0a.8.8,0,0,0,0,1.4,362,362,0,0,0,23.7,27.5c7.8,8.3,16,18.2,16.8,30.3h0c0,15.5-4.6,30.1-12.8,43.3A79.8,79.8,0,0,0,541.7,328.3Z" transform="translate(-257.9 -169.1)" style="fill:#5a6052"/><path d="M460.7,349.2l-1.1.7c-6.2,4-14,6.1-23.1,6.1a32.7,32.7,0,0,1-23.8-9.6c-6.6-6.3-9.9-14.7-9.9-25.1s3.4-18.9,10.1-25.3,15.1-9.6,25-9.6a41.5,41.5,0,0,1,13.3,1.9,32.3,32.3,0,0,1,9.5,5l5.4-7.6c-7.9-6.3-17.8-9.5-29.4-9.5a44.1,44.1,0,0,0-31.8,12.9,42.8,42.8,0,0,0-10.1,15c-1.2-7.5-2.1-15.3-.1-22.2.2-.9-1.4-1.4-1.8-.7-4.5,6.9-5.4,14.5-5.1,22.5l-.4-.4a34.1,34.1,0,0,1-10.1-25c0-10,3.5-18.3,10.2-24.7s15.1-9.6,25-9.6a36.9,36.9,0,0,1,14.6,2.7,42.2,42.2,0,0,1,10.8,7.2l5.9-7.8a43.4,43.4,0,0,0-31-12.2c-13.4,0-24.6,4.3-33.4,12.8s-13.1,19.4-13.1,32.2,3.5,21.4,10.5,29.3l-1-.6c-10.7-6.6-21.3-11.6-33.6-9.9-.9.1-1.1,1.9-.1,2.1,9.4,1.4,18.2,7.3,26.3,12.7s16.4,6.9,23.5,12.5c.1,1.7.3,3.2.5,4.8a42.8,42.8,0,0,0-6.1-4,19.7,19.7,0,0,0-6.7-2.4,3.2,3.2,0,0,0-2.7.5c-1.3,1.2-.6,3,.6,4.3a15,15,0,0,0,2.9,2.7l-2.8-.3c-2.4-.2-4.4,0-5.6,2.2s.5,3.4,2.1,4.4l1.9,1.1-2.4.2a12,12,0,0,0-5.1,1.8,4.3,4.3,0,0,0-1.3,5.4v.2q1.3,2,5.1,2.1a34.9,34.9,0,0,0,7.5-.7,5.9,5.9,0,0,0-2.1,4c-.4,4.1,3.3,6.4,7,5.3,0,1.5.4,3,1.6,3.6s4.4-3,5.3-4.5a18.8,18.8,0,0,0,1.8-3.8,20.2,20.2,0,0,0,.5,2.8,8.8,8.8,0,0,0,2.2,4.4,4.5,4.5,0,0,0,5.4.9h.2c1.2-.9,1.8-2.5,1.7-4.7a21.9,21.9,0,0,0-.3-3.6l1.4,1.5c8.6,8.4,19.4,12.6,32.1,12.6,14.8,0,26.4-4.3,34.4-12.7V325.3H460.7Zm-69-29.4-.9-.9.9.4Zm0-31.9c-.4,6.2.7,12.8,1.7,19.2.2-.2.3-.4.5-.5l-.6,1.7-2.8-2.2a4.6,4.6,0,0,1-.7-.7C389.4,299.3,389.7,293.4,391.7,287.9Zm-42.1,11.7c10,.7,19,5.8,28,11.5,4.5,2.8,8.4,6.5,12.3,10.1-6.5-4.2-14.1-6.2-20.7-10.6S356.5,302.1,349.6,299.6Zm28.7,25.7h0c.1-.1.4-.2,1-.1a18.6,18.6,0,0,1,6,2.2,45.7,45.7,0,0,1,7.7,5.3l.6,2.2A26,26,0,0,1,379,327C378.3,326.3,378,325.5,378.3,325.3Zm1.8,25.1c.7-1.6,2.4-2.7,4-3.5l4.7-2a20.6,20.6,0,0,0-3.6,7.8,7.4,7.4,0,0,0-.3,1.8A3.3,3.3,0,0,1,380.1,350.4Zm21.5,4.8c0,1.7-.3,2.7-1.1,3.2a2.5,2.5,0,0,1-2.9-.6,8.2,8.2,0,0,1-1.7-3.5,44.8,44.8,0,0,1-.7-11.1.7.7,0,0,0-.7-.7h-.3a.9.9,0,0,0-1,.7v.3h0a26.9,26.9,0,0,1-1.5,7.8c-.5,1.3-2.8,6.7-4.2,6.2s-.2-5.5.3-6.8a28.1,28.1,0,0,1,3.9-6.4.9.9,0,0,0,0-1h0l-.5-.8a1.2,1.2,0,0,0-1.5-.3,41.9,41.9,0,0,1-17.2,3.8c-1.8-.1-3-.5-3.5-1.3a2.4,2.4,0,0,1,.9-2.8,7.4,7.4,0,0,1,4-1.4c3.4-.5,12.1.1,15.9.5a.8.8,0,0,0,.8-.6V340a1,1,0,0,0-.8-1c-1.9-.2-5.1-.5-8.2-.6h-.2c-1.8-.1-9.3-2.9-7.3-5.2s4.4-.6,5.9-.3a35.8,35.8,0,0,1,5.4,1.4h0a32.6,32.6,0,0,0,8.7,2.7,42.3,42.3,0,0,0,5.9,11.1A22,22,0,0,1,401.6,355.2Z" transform="translate(-257.9 -169.1)" style="fill:#5a6052"/></svg>
